<!-- Generated by IcoMoon.io -->
<svg version="1.1" xmlns="http://www.w3.org/2000/svg" width="22" height="24" viewBox="0 0 22 24">
<title>controls</title>
<path d="M8.465 1.846c0.38-1.076 1.407-1.846 2.612-1.846 1.207 0 2.234 0.77 2.612 1.846h8.465v1.846h-8.466c-0.38 1.076-1.407 1.846-2.61 1.846-1.206 0-2.232-0.77-2.612-1.846h-8.465v-1.846h8.465zM16.615 14.769c1.204 0 2.23-0.77 2.61-1.846h2.928v-1.846h-2.926c-0.378-1.076-1.405-1.846-2.612-1.846-1.204 0-2.23 0.77-2.61 1.846h-14.005v1.846h14.005c0.382 1.073 1.41 1.846 2.61 1.846zM5.538 24c1.206 0 2.23-0.77 2.612-1.846h14.003v-1.846h-14.001c-0.38-1.076-1.405-1.846-2.614-1.846-1.206 0-2.23 0.77-2.61 1.846h-2.928v1.846h2.926c0.38 1.076 1.407 1.846 2.612 1.846z"></path>
</svg>
