<!-- Generated by IcoMoon.io -->
<svg version="1.1" xmlns="http://www.w3.org/2000/svg" width="24" height="24" viewBox="0 0 24 24">
<title>eye-close</title>
<path d="M10.718 14.696c0.382 0.176 0.838 0.304 1.282 0.304 1.656 0 3-1.344 3-3 0-0.46-0.106-0.904-0.292-1.292l2.184-2.184c0.698 0.98 1.108 2.18 1.108 3.476 0 3.314-2.688 6-6 6-1.296 0-2.496-0.41-3.476-1.11l2.194-2.194zM12 20c6 0 12-6 12-8 0-1.172-2.054-3.714-4.964-5.622l4.898-4.898-1.414-1.414-9.238 9.238c-0.384-0.178-0.832-0.304-1.282-0.304-1.656 0-3 1.342-3 3 0 0.466 0.102 0.902 0.292 1.296l-9.232 9.232 1.414 1.414 5.288-5.29c1.64 0.812 3.438 1.348 5.238 1.348zM13.826 4.176c-0.604-0.114-1.214-0.176-1.826-0.176-6 0-12 6-12 8 0 0.784 0.922 2.182 2.402 3.592l3.598-3.592c0-3.314 2.688-6 6-6l1.826-1.824z"></path>
</svg>
