<!-- Generated by IcoMoon.io -->
<svg version="1.1" xmlns="http://www.w3.org/2000/svg" width="24" height="24" viewBox="0 0 24 24">
<title>foresight</title>
<path d="M13.344 0c0.185 0 0.371 0.021 0.546 0.062l4.088 0.875c0.288 0.062 0.432 0.381 0.299 0.638l-4.098 7.66c-0.103 0.185-0.299 0.309-0.515 0.309h-5.199c-0.216 0-0.412-0.113-0.515-0.299l-3.912-7.125c-0.144-0.268 0.010-0.597 0.309-0.638l8.432-1.431c0.196-0.041 0.381-0.051 0.566-0.051z"></path>
<path d="M10.718 14.27c0.165 0.309 0.607 0.299 0.772 0l1.472-2.749c0.154-0.288-0.051-0.649-0.381-0.649h-2.976c-0.329 0-0.546 0.36-0.381 0.649l1.493 2.749z"></path>
<path d="M0.134 16.546c-0.082-0.165-0.134-0.35-0.134-0.546v-12.932c0-0.494 0.36-0.927 0.885-1.009l0.175-0.031c0.432-0.072 0.865 0.134 1.071 0.525l8.515 15.959c0.175 0.329 0.525 0.546 0.906 0.546h1.761c0.381 0 0.721-0.206 0.906-0.546l8.227-15.465c0.206-0.391 0.638-0.597 1.071-0.505h0.010c0.453 0.093 0.772 0.494 0.772 0.958v13.107c0 0.216-0.062 0.432-0.175 0.607v0c-0.103 0.175-0.257 0.319-0.453 0.422l-11.799 6.229c-0.381 0.206-0.844 0.175-1.194-0.062l-10.162-6.847c-0.154-0.103-0.288-0.247-0.381-0.412z"></path>
</svg>
