<!-- Generated by IcoMoon.io -->
<svg version="1.1" xmlns="http://www.w3.org/2000/svg" width="24" height="24" viewBox="0 0 24 24">
<title>key</title>
<path d="M8.5 23.969l-2.928-2.928-2.961 2.959-2.61-2.61 8.662-8.66c-0.81-1.281-1.278-2.799-1.278-4.422 0-4.58 3.727-8.308 8.308-8.308s8.308 3.727 8.308 8.308-3.727 8.308-8.308 8.308c-1.623 0-3.138-0.467-4.42-1.276l-3.090 3.090 2.928 2.928-2.61 2.61zM15.692 3.692c-2.546 0-4.615 2.071-4.615 4.615s2.070 4.615 4.615 4.615 4.615-2.071 4.615-4.615-2.070-4.615-4.615-4.615z"></path>
</svg>
