<!-- Generated by IcoMoon.io -->
<svg version="1.1" xmlns="http://www.w3.org/2000/svg" width="24" height="24" viewBox="0 0 24 24">
<title>profile</title>
<path d="M16.748 6.994c0 0.342 0.278 0.62 0.622 0.62 0.228 0 0.412 0.188 0.412 0.416v1.656c0 0.228-0.184 0.412-0.412 0.412h-0.086c-0.346 0-0.622 0.28-0.622 0.622v1.498c-0.006 0.42-0.15 0.824-0.412 1.15l-1.272 1.57c-0.092 0.112-0.14 0.252-0.14 0.392v2.396c0.006 0.888 0.732 1.62 1.628 1.616h2.862c2.574 0.004 4.658 2.084 4.672 4.658h-24c0.016-2.574 2.1-4.65 4.674-4.654h2.862c0.896 0 1.626-0.724 1.628-1.62v-2.396c-0.002-0.14-0.050-0.282-0.14-0.392l-1.286-1.57c-0.266-0.326-0.412-0.73-0.414-1.152v-1.498c0-0.34-0.276-0.622-0.622-0.622h-0.082c-0.228 0-0.414-0.184-0.414-0.412v-1.656c0-0.228 0.186-0.416 0.414-0.416 0.344 0 0.62-0.278 0.62-0.62v-2.236c0.002-2.626 2.134-4.756 4.76-4.756h0.020c2.626 0 4.758 2.13 4.76 4.758v2.238h-0.032z"></path>
</svg>
