<!-- Generated by IcoMoon.io -->
<svg version="1.1" xmlns="http://www.w3.org/2000/svg" width="24" height="24" viewBox="0 0 24 24">
<title>search</title>
<path d="M18.515 15.908l5.485 5.481-2.61 2.61-5.483-5.481c-1.636 1.13-3.615 1.789-5.753 1.789-5.609 0-10.154-4.547-10.154-10.154 0-5.609 4.545-10.154 10.154-10.154 5.607 0 10.154 4.545 10.154 10.154 0 2.103-0.696 4.134-1.793 5.754zM10.154 3.692c-3.569 0-6.462 2.893-6.462 6.462 0 3.57 2.893 6.462 6.462 6.462 3.57 0 6.462-2.891 6.462-6.462 0-3.569-2.891-6.462-6.462-6.462z"></path>
</svg>
