<!-- Generated by IcoMoon.io -->
<svg version="1.1" xmlns="http://www.w3.org/2000/svg" width="24" height="24" viewBox="0 0 24 24">
<title>settings</title>
<path d="M16 12c0 2.208-1.792 4-4 4s-4-1.792-4-4c0-2.208 1.792-4 4-4s4 1.792 4 4zM21.9 4.928l-2.83-2.828-3.070 3.070c-0.624-0.364-1.282-0.732-2-0.918v-4.252h-4v4.252c-0.708 0.182-1.458 0.484-2.078 0.84l-2.994-2.992-2.828 2.828 3.004 3.004c-0.372 0.636-0.662 1.338-0.852 2.068h-4.252v4h4.252c0.188 0.732 0.48 1.426 0.854 2.062l-3.006 3.008 2.828 2.83 3.014-3.014c0.628 0.366 1.34 0.676 2.058 0.862v4.252h4v-4.252c0.734-0.19 1.43-0.476 2.066-0.852l3.004 3.004 2.83-2.83-3.018-3.016c0.37-0.626 0.682-1.336 0.866-2.054h4.252v-4h-4.252c-0.19-0.734-0.48-1.424-0.858-2.062l3.010-3.010z"></path>
</svg>
