<!-- Generated by IcoMoon.io -->
<svg version="1.1" xmlns="http://www.w3.org/2000/svg" width="20" height="24" viewBox="0 0 20 24">
<title>trash</title>
<path d="M5.538 3.692v-3.692h9.231v3.692h5.538v1.846h-20.308v-1.846h5.538zM12.923 3.692v-1.846h-5.538v1.846h5.538z"></path>
<path d="M1.846 24v-16.615h16.615v16.615h-16.615zM5.538 22.154v-12.923c0 0-1.846 0-1.846 0v12.923c0 0 1.846 0 1.846 0zM9.231 22.154v-12.923c0 0-1.846 0-1.846 0s0 12.923 0 12.923c0 0 1.846 0 1.846 0zM12.923 22.154v-12.923c0 0-1.846 0-1.846 0s0 12.923 0 12.923h1.846zM16.615 22.154v0 0 0 0 0-12.923c0 0-1.846 0-1.846 0v12.923h1.846z"></path>
</svg>
