<?xml version="1.0" encoding="utf-8"?>
<!-- Generator: Adobe Illustrator 15.0.0, SVG Export Plug-In . SVG Version: 6.00 Build 0)  -->
<!DOCTYPE svg PUBLIC "-//W3C//DTD SVG 1.1//EN" "http://www.w3.org/Graphics/SVG/1.1/DTD/svg11.dtd">
<svg version="1.1" id="Слой_1" xmlns="http://www.w3.org/2000/svg" xmlns:xlink="http://www.w3.org/1999/xlink" x="0px" y="0px"
	 width="238.11px" height="238.11px" viewBox="0 0 238.11 238.11" enable-background="new 0 0 238.11 238.11" xml:space="preserve">
<g>
	<path fill="#ED808A" d="M163.938,135.522l71.443,34.158c1.065-1.747,1.659-3.782,1.659-5.906V36.471
		c0-4.495-3.146-8.375-7.545-9.304l-0.146-0.031c-4.184-0.883-8.441,1.134-10.407,4.929L163.938,135.522z"/>
	<path fill="#FFE165" d="M130.631,2.47l0.001,92.678l-47.344-0.001c-2.07,0-3.975-1.128-4.97-2.942L40.319,22.959
		c-1.407-2.564,0.135-5.75,3.018-6.238L125.284,2.86C127.055,2.562,128.845,2.432,130.631,2.47"/>
	<path fill="#ED808A" d="M130.633,95.148h3.11c2.092,0,4.014-1.152,4.999-2.996l39.792-74.406c1.334-2.494-0.094-5.572-2.86-6.163
		l-39.737-8.494c-1.749-0.373-3.524-0.58-5.305-0.619L130.633,95.148z"/>
	<path fill="#FFE165" d="M122.636,122.271l4.252-7.951c1.516-2.833-0.537-6.257-3.749-6.257H94.204
		c-3.233,0-5.283,3.464-3.728,6.297l8.74,15.927L122.636,122.271z"/>
	<path fill="#209ED5" d="M99.216,130.287l23.42-8.017l-10.029,18.753c-1.592,2.978-5.853,3-7.477,0.04L99.216,130.287z"/>
	<path fill="#209ED5" d="M163.938,135.522l71.443,34.158c-1.045,1.712-2.544,3.148-4.385,4.12l-114.613,60.534
		c-3.695,1.95-8.163,1.712-11.629-0.622L6.075,167.255c-1.583-1.066-2.845-2.495-3.706-4.136l77.776-26.397v0.001l24.308,45.552
		c1.724,3.232,5.089,5.25,8.753,5.25h17.123c3.669,0,7.038-2.023,8.761-5.264L163.938,135.522z"/>
	<path fill="#FFE165" d="M80.145,136.723L21.727,27.248c-2.009-3.764-6.199-5.822-10.406-5.111l-1.693,0.287
		c-5.065,0.857-8.558,4.991-8.558,9.831V157.85c0,1.864,0.458,3.667,1.299,5.27L80.145,136.723z"/>
</g>
</svg>
