<?xml version="1.0" encoding="utf-8"?>
<!-- Generator: Adobe Illustrator 17.1.0, SVG Export Plug-In . SVG Version: 6.00 Build 0)  -->
<!DOCTYPE svg PUBLIC "-//W3C//DTD SVG 1.1//EN" "http://www.w3.org/Graphics/SVG/1.1/DTD/svg11.dtd">
<svg version="1.1" id="Слой_1" xmlns="http://www.w3.org/2000/svg" xmlns:xlink="http://www.w3.org/1999/xlink" x="0px" y="0px"
	 viewBox="0 0 240 80" enable-background="new 0 0 240 80" xml:space="preserve">
<g>
	<g>
		<path fill="#FFFFFF" d="M90.8,38h-1.5V26.6h-6.7V38h-1.5V25.2h9.7V38z"/>
		<path fill="#FFFFFF" d="M107.1,38h-1.5v-8.5c0-0.7,0-1.5,0.1-2.5h0c-0.1,0.6-0.3,1-0.4,1.2L101,38h-0.7l-4.3-9.7
			c-0.1-0.3-0.3-0.7-0.4-1.3h0c0.1,0.5,0.1,1.3,0.1,2.5V38h-1.4V25.2h2l3.9,8.9c0.3,0.7,0.5,1.2,0.6,1.5h0.1
			c0.3-0.7,0.5-1.2,0.6-1.6l4-8.9h1.9V38z"/>
		<path fill="#FFFFFF" d="M121.1,36.3V38h-1.4v-1.7h-0.2c-1.4,0-2.6-0.5-3.5-1.5c-0.9-1-1.4-2.2-1.4-3.6c0-1.4,0.5-2.5,1.4-3.4
			c0.9-0.9,2.1-1.4,3.6-1.4h0.2v-1.6h1.4v1.6h0.2c1.5,0,2.6,0.4,3.6,1.4c0.9,0.9,1.4,2.1,1.4,3.4c0,1.4-0.5,2.6-1.4,3.6
			c-0.9,1-2.1,1.5-3.5,1.5L121.1,36.3L121.1,36.3z M119.7,35v-7.3h-0.2c-1,0-1.8,0.3-2.4,1c-0.6,0.7-0.9,1.5-0.9,2.6
			c0,1.1,0.3,2,0.9,2.7c0.6,0.7,1.4,1,2.4,1H119.7z M121.1,27.7V35h0.2c1,0,1.8-0.3,2.4-1c0.6-0.7,0.9-1.6,0.9-2.7
			c0-1.1-0.3-1.9-0.9-2.6c-0.6-0.7-1.4-1-2.5-1C121.3,27.7,121.1,27.7,121.1,27.7z"/>
		<path fill="#FFFFFF" d="M133.8,38.2c-1.8,0-3.3-0.6-4.3-1.8c-1.1-1.2-1.6-2.7-1.6-4.7c0-2,0.5-3.7,1.7-4.9
			c1.1-1.2,2.6-1.8,4.5-1.8c1.8,0,3.2,0.6,4.3,1.8c1.1,1.2,1.6,2.7,1.6,4.7c0,2.1-0.5,3.7-1.6,4.9C137.1,37.6,135.6,38.2,133.8,38.2
			z M133.9,26.4c-1.3,0-2.4,0.5-3.3,1.4c-0.8,1-1.3,2.2-1.3,3.8c0,1.6,0.4,2.8,1.2,3.8s1.9,1.4,3.2,1.4c1.4,0,2.5-0.5,3.3-1.4
			c0.8-0.9,1.2-2.2,1.2-3.8c0-1.7-0.4-3-1.2-3.9C136.3,26.8,135.3,26.4,133.9,26.4z"/>
		<path fill="#FFFFFF" d="M143.8,33.2V38h-1.5V25.2h3.5c1.4,0,2.4,0.3,3.2,1c0.8,0.7,1.1,1.6,1.1,2.8c0,1.2-0.4,2.2-1.3,3
			c-0.8,0.8-2,1.1-3.4,1.1H143.8z M143.8,26.6v5.2h1.6c1,0,1.8-0.2,2.4-0.7c0.5-0.5,0.8-1.1,0.8-2c0-1.7-1-2.5-3-2.5
			C145.6,26.6,143.8,26.6,143.8,26.6z"/>
		<path fill="#FFFFFF" d="M161.1,37.4c-0.9,0.5-2.1,0.7-3.5,0.7c-1.8,0-3.3-0.6-4.4-1.8c-1.1-1.2-1.6-2.7-1.6-4.6
			c0-2,0.6-3.7,1.8-4.9c1.2-1.3,2.8-1.9,4.7-1.9c1.2,0,2.2,0.2,3,0.5v1.6c-0.9-0.5-1.9-0.8-3-0.8c-1.5,0-2.6,0.5-3.6,1.5
			c-0.9,1-1.4,2.3-1.4,3.9c0,1.5,0.4,2.8,1.3,3.7c0.9,0.9,2,1.4,3.3,1.4c1.3,0,2.4-0.3,3.3-0.9L161.1,37.4L161.1,37.4z"/>
		<path fill="#FFFFFF" d="M173.6,38h-1.6l-1.4-3.6h-5.4l-1.3,3.6h-1.7l4.9-12.7h1.5L173.6,38z M170.1,33.1l-2-5.4
			c-0.1-0.2-0.1-0.5-0.2-0.9h0c-0.1,0.4-0.1,0.7-0.2,0.9l-2,5.4H170.1z"/>
		<path fill="#FFFFFF" d="M185.7,38h-1.5v-9.2c0-0.8,0-1.4,0.1-1.8h-0.1c-0.1,0.3-0.2,0.5-0.4,0.8L177.3,38h-1.9V25.2h1.5v9
			c0,1,0,1.6-0.1,1.9h0c0.1-0.3,0.3-0.5,0.5-0.9l6.4-10h1.9V38z M183.8,21.4c-0.1,0.8-0.4,1.5-1,2s-1.3,0.7-2.2,0.7
			c-0.9,0-1.6-0.2-2.2-0.7c-0.6-0.5-0.9-1.1-0.9-2h1.4c0.1,1.1,0.7,1.7,1.7,1.7c0.5,0,0.9-0.2,1.2-0.4s0.5-0.7,0.6-1.2L183.8,21.4
			L183.8,21.4z"/>
		<path fill="#FFFFFF" d="M196.6,26.6h-3.7V38h-1.5V26.6h-3.7v-1.4h8.8V26.6z"/>
	</g>
</g>
<g>
	<g>
		<path fill="#FFFFFF" d="M88.5,58.7h-0.8v-2.2h-4.5v2.2h-0.8v-3.1h0.5c1-1.5,1.6-3.3,1.6-5.3h3.2v5.3h0.9
			C88.5,55.6,88.5,58.7,88.5,58.7z M86.6,55.6v-4.4h-1.4c-0.1,1.6-0.6,3.1-1.4,4.4H86.6z"/>
		<path fill="#FFFFFF" d="M94.4,56.4h-1v-5.3H92c-0.2,2-0.4,3.4-0.8,4.2c-0.4,0.8-0.9,1.2-1.6,1.2c-0.2,0-0.4,0-0.5-0.1v-0.8
			c0.1,0.1,0.3,0.1,0.4,0.1c0.9,0,1.4-1.8,1.7-5.4h3.2L94.4,56.4L94.4,56.4z"/>
		<path fill="#FFFFFF" d="M100.6,56.4h-1v-2.5h-0.8c-0.4,0-0.8,0.3-1.1,0.9l-0.8,1.6h-1.1l1-1.9c0.2-0.4,0.5-0.7,0.9-0.9
			c-0.5-0.1-0.8-0.2-1.1-0.5c-0.2-0.3-0.4-0.6-0.4-1.1c0-0.5,0.2-1,0.6-1.3c0.4-0.3,0.9-0.5,1.6-0.5h2.1V56.4z M99.6,53.1v-1.9h-1.1
			c-0.8,0-1.2,0.3-1.2,0.9c0,0.7,0.4,1,1.2,1H99.6z"/>
		<path fill="#FFFFFF" d="M109.2,51.2h-2.4v5.3h-1v-6.1h3.4V51.2z"/>
		<path fill="#FFFFFF" d="M112.8,56.6c-0.9,0-1.6-0.3-2.2-0.9s-0.8-1.3-0.8-2.3c0-1,0.3-1.8,0.8-2.4c0.6-0.6,1.3-0.9,2.3-0.9
			c0.9,0,1.6,0.3,2.1,0.8c0.5,0.6,0.8,1.3,0.8,2.3c0,1-0.3,1.8-0.8,2.3C114.5,56.3,113.8,56.6,112.8,56.6z M112.9,51
			c-0.6,0-1.1,0.2-1.5,0.6c-0.4,0.4-0.5,1-0.5,1.8c0,0.7,0.2,1.3,0.5,1.7c0.4,0.4,0.9,0.6,1.5,0.6c0.6,0,1.1-0.2,1.5-0.6
			c0.3-0.4,0.5-1,0.5-1.8s-0.2-1.4-0.5-1.8C114,51.2,113.5,51,112.9,51z"/>
		<path fill="#FFFFFF" d="M121.6,56.2c-0.5,0.3-1,0.4-1.7,0.4c-0.9,0-1.6-0.3-2.1-0.8c-0.5-0.6-0.8-1.3-0.8-2.2c0-1,0.3-1.8,0.9-2.4
			c0.6-0.6,1.3-0.9,2.3-0.9c0.5,0,1,0.1,1.4,0.3v1c-0.4-0.3-0.9-0.5-1.5-0.5c-0.6,0-1.1,0.2-1.5,0.7c-0.4,0.4-0.6,1-0.6,1.8
			s0.2,1.3,0.6,1.7s0.9,0.6,1.5,0.6c0.5,0,1-0.2,1.5-0.5L121.6,56.2L121.6,56.2z"/>
		<path fill="#FFFFFF" d="M127.9,50.4l-2.8,7.1c-0.5,1.3-1.2,1.9-2.1,1.9c-0.3,0-0.5,0-0.6-0.1v-0.9c0.2,0.1,0.4,0.1,0.6,0.1
			c0.5,0,0.9-0.3,1.1-0.9l0.5-1.1l-2.4-6.1h1.1l1.6,4.7c0,0.1,0.1,0.2,0.1,0.5h0c0-0.1,0.1-0.2,0.1-0.4l1.7-4.7
			C126.9,50.4,127.9,50.4,127.9,50.4z"/>
		<path fill="#FFFFFF" d="M133.9,56.4h-1V54c-0.7,0.4-1.4,0.6-2,0.6c-1.4,0-2-0.7-2-2.2v-2.1h1v2c0,0.9,0.4,1.3,1.1,1.3
			c0.6,0,1.2-0.2,1.9-0.5v-2.8h1V56.4z"/>
		<path fill="#FFFFFF" d="M136.9,55.6L136.9,55.6l0,3.7h-1v-8.9h1v1.1h0c0.5-0.8,1.2-1.2,2.1-1.2c0.8,0,1.4,0.3,1.8,0.8
			c0.4,0.5,0.7,1.3,0.7,2.2c0,1-0.2,1.8-0.7,2.5c-0.5,0.6-1.2,0.9-2,0.9C137.9,56.6,137.3,56.3,136.9,55.6z M136.8,53.1V54
			c0,0.5,0.2,0.9,0.5,1.3c0.3,0.3,0.7,0.5,1.3,0.5c0.6,0,1-0.2,1.4-0.7c0.3-0.5,0.5-1.1,0.5-1.9c0-0.7-0.2-1.2-0.5-1.6
			c-0.3-0.4-0.7-0.6-1.3-0.6c-0.6,0-1,0.2-1.4,0.6C137,52,136.8,52.5,136.8,53.1z"/>
		<path fill="#FFFFFF" d="M147.9,53.6h-4.3c0,0.7,0.2,1.2,0.5,1.6c0.3,0.4,0.8,0.5,1.4,0.5c0.7,0,1.3-0.2,1.9-0.7V56
			c-0.5,0.4-1.2,0.6-2.1,0.6c-0.9,0-1.5-0.3-2-0.8c-0.5-0.5-0.7-1.3-0.7-2.3c0-0.9,0.3-1.7,0.8-2.3c0.5-0.6,1.2-0.9,2-0.9
			c0.8,0,1.4,0.3,1.9,0.8c0.4,0.5,0.7,1.2,0.7,2.1C147.9,53.1,147.9,53.6,147.9,53.6z M146.9,52.8c0-0.6-0.1-1-0.4-1.3
			c-0.3-0.3-0.6-0.5-1.1-0.5c-0.5,0-0.9,0.2-1.2,0.5c-0.3,0.3-0.5,0.8-0.6,1.3H146.9z"/>
		<path fill="#FFFFFF" d="M157.5,56.4h-1.3l-2.7-3h0v3h-0.9v-3h0l-2.7,3h-1.3l3-3.1l-2.8-3h1.2l2.6,2.8h0v-2.8h0.9v2.8h0l2.6-2.8
			h1.3l-2.8,3L157.5,56.4z"/>
		<path fill="#FFFFFF" d="M164,58.7h-0.8v-2.2h-4.5v2.2h-0.8v-3.1h0.5c1-1.5,1.6-3.3,1.6-5.3h3.2v5.3h0.9L164,58.7L164,58.7z
			 M162.1,55.6v-4.4h-1.4c-0.1,1.6-0.6,3.1-1.4,4.4H162.1z"/>
		<path fill="#FFFFFF" d="M170.3,53.6H166c0,0.7,0.2,1.2,0.5,1.6c0.3,0.4,0.8,0.5,1.4,0.5c0.7,0,1.3-0.2,1.9-0.7V56
			c-0.5,0.4-1.2,0.6-2.1,0.6c-0.9,0-1.5-0.3-2-0.8c-0.5-0.5-0.7-1.3-0.7-2.3c0-0.9,0.3-1.7,0.8-2.3c0.5-0.6,1.2-0.9,2-0.9
			c0.8,0,1.4,0.3,1.9,0.8c0.4,0.5,0.7,1.2,0.7,2.1C170.3,53.1,170.3,53.6,170.3,53.6z M169.3,52.8c0-0.6-0.1-1-0.4-1.3
			c-0.3-0.3-0.6-0.5-1.1-0.5c-0.5,0-0.9,0.2-1.2,0.5c-0.3,0.3-0.5,0.8-0.6,1.3H169.3z"/>
		<path fill="#FFFFFF" d="M176.8,56.4h-1v-2.8h-3.1v2.8h-1v-6.1h1v2.5h3.1v-2.5h1V56.4z"/>
		<path fill="#FFFFFF" d="M183.9,56.4H183v-4.9c-0.1,0.2-0.2,0.4-0.4,0.7l-2.8,4.1h-1v-6.1h0.9v4.8c0.1-0.1,0.2-0.3,0.3-0.6l2.9-4.2
			h1V56.4z"/>
		<path fill="#FFFFFF" d="M191,56.4h-0.9v-4.9c-0.1,0.2-0.2,0.4-0.4,0.7l-2.8,4.1h-1v-6.1h0.9v4.8c0.1-0.1,0.2-0.3,0.3-0.6l2.9-4.2
			h1V56.4z M190.6,47.4c-0.1,0.6-0.3,1-0.7,1.3c-0.4,0.3-0.9,0.5-1.5,0.5c-0.6,0-1.1-0.2-1.5-0.5c-0.4-0.3-0.6-0.8-0.6-1.3h1
			c0.1,0.7,0.4,1.1,1.1,1.1c0.3,0,0.6-0.1,0.8-0.3c0.2-0.2,0.3-0.5,0.4-0.8H190.6z"/>
	</g>
</g>
<g>
	<g>
		<g>
			<path fill="#FFFFFF" d="M42.2,20c0.3,0,0.6,0,0.9,0.1l6.8,1.5c0.5,0.1,0.7,0.6,0.5,1.1l-6.8,12.8c-0.2,0.3-0.5,0.5-0.9,0.5h-8.7
				c-0.4,0-0.7-0.2-0.9-0.5l-6.5-11.9c-0.2-0.4,0-1,0.5-1.1l14.1-2.4C41.6,20,41.9,20,42.2,20z"/>
		</g>
		<g>
			<path fill="#FFFFFF" d="M37.9,43.8c0.3,0.5,1,0.5,1.3,0l2.5-4.6c0.3-0.5-0.1-1.1-0.6-1.1h-5c-0.5,0-0.9,0.6-0.6,1.1L37.9,43.8z"
				/>
		</g>
		<g>
			<path fill="#FFFFFF" d="M20.2,47.6C20.1,47.3,20,47,20,46.7V25.1c0-0.8,0.6-1.5,1.5-1.7l0.3-0.1c0.7-0.1,1.4,0.2,1.8,0.9
				l14.2,26.6c0.3,0.5,0.9,0.9,1.5,0.9h2.9c0.6,0,1.2-0.3,1.5-0.9l13.7-25.8c0.3-0.7,1.1-1,1.8-0.8h0c0.8,0.2,1.3,0.8,1.3,1.6v21.8
				c0,0.4-0.1,0.7-0.3,1l0,0c-0.2,0.3-0.4,0.5-0.8,0.7L39.8,59.8c-0.6,0.3-1.4,0.3-2-0.1L20.9,48.3C20.6,48.1,20.4,47.8,20.2,47.6z"
				/>
		</g>
	</g>
</g>
</svg>
