<?xml version="1.0" encoding="utf-8"?>
<!-- Generator: Adobe Illustrator 15.0.0, SVG Export Plug-In . SVG Version: 6.00 Build 0)  -->
<!DOCTYPE svg PUBLIC "-//W3C//DTD SVG 1.1//EN" "http://www.w3.org/Graphics/SVG/1.1/DTD/svg11.dtd">
<svg version="1.1" xmlns="http://www.w3.org/2000/svg" xmlns:xlink="http://www.w3.org/1999/xlink" x="0px" y="0px" width="100px"
	 height="100px" viewBox="0 0 100 100" enable-background="new 0 0 100 100" xml:space="preserve">
<g id="Слой_2" display="none">
	<g>
		<g display="inline">
			<path fill="#333333" d="M40.962,49.249h-0.769v-5.772h-3.388v5.772h-0.76V42.77h4.917V49.249z"/>
			<path fill="#333333" d="M49.249,49.249h-0.751V44.9c0-0.34,0.018-0.76,0.061-1.257h-0.017c-0.07,0.288-0.14,0.498-0.192,0.628
				l-2.218,4.978h-0.367l-2.209-4.942c-0.061-0.148-0.131-0.367-0.192-0.664h-0.018c0.026,0.262,0.035,0.681,0.035,1.266v4.34
				h-0.733V42.77h1.004l1.991,4.523c0.157,0.35,0.253,0.603,0.297,0.777h0.026c0.131-0.358,0.236-0.62,0.314-0.795l2.026-4.505
				h0.943V49.249L49.249,49.249z"/>
			<path fill="#333333" d="M56.393,48.402v0.847h-0.707v-0.847h-0.123c-0.725,0-1.317-0.244-1.789-0.742
				c-0.473-0.498-0.709-1.1-0.709-1.816c0-0.69,0.236-1.267,0.709-1.738c0.472-0.472,1.072-0.708,1.808-0.708h0.112v-0.812H56.4
				v0.812h0.104c0.742,0,1.345,0.227,1.808,0.69s0.699,1.048,0.699,1.747c0,0.707-0.236,1.318-0.707,1.816
				c-0.474,0.498-1.066,0.742-1.791,0.742h-0.121V48.402L56.393,48.402z M55.686,47.729v-3.693h-0.113
				c-0.516,0-0.926,0.166-1.24,0.506s-0.473,0.777-0.473,1.31c0,0.577,0.158,1.031,0.464,1.371c0.313,0.341,0.725,0.506,1.239,0.506
				H55.686z M56.393,44.036v3.693h0.113c0.516,0,0.926-0.174,1.24-0.515c0.313-0.34,0.462-0.794,0.462-1.371
				c0-0.542-0.157-0.978-0.462-1.31c-0.314-0.332-0.727-0.498-1.25-0.498L56.393,44.036L56.393,44.036z"/>
			<path fill="#333333" d="M62.828,49.362c-0.918,0-1.66-0.305-2.21-0.908s-0.829-1.397-0.829-2.367
				c0-1.039,0.279-1.877,0.848-2.497c0.566-0.62,1.326-0.935,2.295-0.935c0.892,0,1.616,0.306,2.166,0.908
				c0.551,0.603,0.82,1.388,0.82,2.366c0,1.057-0.279,1.895-0.838,2.506S63.771,49.362,62.828,49.362z M62.88,43.346
				c-0.681,0-1.231,0.245-1.659,0.733c-0.428,0.489-0.637,1.135-0.637,1.938c0,0.795,0.209,1.441,0.619,1.93
				c0.41,0.489,0.951,0.734,1.625,0.734c0.707,0,1.273-0.236,1.686-0.699c0.41-0.463,0.61-1.109,0.61-1.947
				c0-0.856-0.2-1.52-0.595-1.982C64.129,43.582,63.587,43.346,62.88,43.346z"/>
			<path fill="#333333" d="M67.953,46.804v2.454h-0.76V42.77h1.781c0.688,0,1.23,0.166,1.614,0.506
				c0.386,0.34,0.568,0.812,0.568,1.432s-0.21,1.118-0.638,1.51c-0.42,0.393-0.996,0.585-1.713,0.585L67.953,46.804L67.953,46.804z
				 M67.953,43.459v2.655h0.795c0.523,0,0.926-0.122,1.195-0.358c0.279-0.236,0.41-0.577,0.41-1.013c0-0.855-0.506-1.284-1.52-1.284
				H67.953z"/>
			<path fill="#333333" d="M76.746,48.979c-0.48,0.253-1.074,0.375-1.789,0.375c-0.926,0-1.66-0.297-2.219-0.891
				c-0.551-0.594-0.83-1.371-0.83-2.34c0-1.039,0.314-1.877,0.936-2.515c0.619-0.637,1.414-0.96,2.375-0.96
				c0.611,0,1.127,0.087,1.527,0.271v0.812c-0.463-0.262-0.979-0.393-1.537-0.393c-0.742,0-1.344,0.245-1.807,0.742
				s-0.689,1.162-0.689,1.991c0,0.786,0.219,1.415,0.646,1.886c0.437,0.472,0.994,0.699,1.701,0.699
				c0.655,0,1.215-0.148,1.695-0.438v0.76H76.746z"/>
			<path fill="#333333" d="M83.086,49.249h-0.838l-0.689-1.816h-2.752l-0.646,1.816h-0.847l2.487-6.479h0.785L83.086,49.249z
				 M81.305,46.751l-1.014-2.759c-0.034-0.087-0.068-0.236-0.096-0.437h-0.019c-0.024,0.184-0.061,0.332-0.104,0.437l-1.005,2.759
				H81.305z"/>
			<path fill="#333333" d="M89.26,49.249H88.5v-4.68c0-0.419,0.018-0.716,0.043-0.891h-0.025c-0.062,0.148-0.123,0.28-0.209,0.411
				l-3.336,5.169h-0.943V42.77h0.761v4.567c0,0.489-0.011,0.803-0.035,0.952h0.019c0.069-0.131,0.147-0.279,0.252-0.437l3.258-5.082
				h0.979v6.479H89.26z M88.299,40.796c-0.043,0.428-0.219,0.76-0.516,1.004c-0.297,0.244-0.672,0.367-1.117,0.367
				c-0.454,0-0.83-0.123-1.117-0.367c-0.289-0.245-0.445-0.585-0.473-1.004h0.734c0.043,0.567,0.332,0.847,0.863,0.847
				c0.245,0,0.438-0.079,0.594-0.227c0.157-0.148,0.254-0.358,0.289-0.629h0.741L88.299,40.796L88.299,40.796z"/>
			<path fill="#333333" d="M94.805,43.459h-1.869v5.798h-0.76v-5.798h-1.867V42.77h4.496V43.459z"/>
		</g>
	</g>
	<g>
		<g display="inline">
			<path fill="#333333" d="M39.801,59.789h-0.419v-1.127h-2.305v1.127h-0.428v-1.555h0.28c0.533-0.76,0.794-1.659,0.803-2.682h1.606
				v2.682h0.463V59.789L39.801,59.789z M38.84,58.234v-2.262h-0.69c-0.052,0.838-0.288,1.59-0.707,2.262H38.84z"/>
			<path fill="#333333" d="M42.805,58.652h-0.498v-2.68h-0.725c-0.078,1.004-0.227,1.711-0.428,2.112
				c-0.201,0.401-0.472,0.61-0.812,0.61c-0.105,0-0.192-0.018-0.271-0.043v-0.428c0.07,0.034,0.148,0.051,0.227,0.051
				c0.445,0,0.733-0.906,0.855-2.724h1.633v3.101H42.805L42.805,58.652z"/>
			<path fill="#333333" d="M45.931,58.652h-0.498V57.37h-0.411c-0.201,0-0.384,0.157-0.541,0.479l-0.402,0.803h-0.576l0.524-0.959
				c0.122-0.219,0.271-0.367,0.437-0.438c-0.245-0.034-0.428-0.121-0.55-0.271c-0.122-0.147-0.192-0.323-0.192-0.541
				c0-0.271,0.096-0.489,0.297-0.655c0.201-0.156,0.48-0.244,0.838-0.244h1.074V58.652z M45.433,56.959V55.98h-0.585
				c-0.419,0-0.629,0.158-0.629,0.473c0,0.332,0.201,0.506,0.611,0.506H45.433z"/>
			<path fill="#333333" d="M50.349,55.98h-1.222v2.672h-0.498v-3.1h1.72V55.98z"/>
			<path fill="#333333" d="M52.184,58.732c-0.455,0-0.82-0.148-1.101-0.438c-0.28-0.287-0.411-0.672-0.411-1.151
				c0-0.523,0.141-0.927,0.428-1.224c0.289-0.297,0.674-0.437,1.153-0.437c0.463,0,0.821,0.14,1.083,0.429
				c0.262,0.287,0.393,0.681,0.393,1.188c0,0.496-0.14,0.891-0.418,1.188C53.031,58.584,52.654,58.732,52.184,58.732z
				 M52.218,55.902c-0.323,0-0.567,0.104-0.759,0.324c-0.184,0.217-0.279,0.515-0.279,0.897c0,0.367,0.096,0.655,0.279,0.873
				c0.184,0.21,0.436,0.313,0.75,0.313c0.323,0,0.568-0.104,0.742-0.313c0.175-0.209,0.262-0.506,0.262-0.892
				c0-0.383-0.087-0.688-0.262-0.897C52.785,56.008,52.541,55.902,52.218,55.902z"/>
			<path fill="#333333" d="M56.637,58.514c-0.236,0.141-0.523,0.219-0.848,0.219c-0.445,0-0.795-0.141-1.074-0.428
				c-0.27-0.289-0.41-0.664-0.41-1.117c0-0.508,0.148-0.918,0.438-1.231c0.297-0.306,0.681-0.463,1.17-0.463
				c0.271,0,0.515,0.053,0.726,0.147v0.508c-0.229-0.157-0.48-0.246-0.742-0.246c-0.314,0-0.576,0.115-0.777,0.343
				s-0.307,0.522-0.307,0.891c0,0.366,0.097,0.646,0.289,0.855c0.19,0.209,0.444,0.313,0.769,0.313c0.271,0,0.524-0.088,0.759-0.271
				v0.479H56.637z"/>
			<path fill="#333333" d="M59.85,55.555l-1.424,3.598c-0.252,0.638-0.609,0.959-1.072,0.959c-0.131,0-0.235-0.018-0.324-0.043
				v-0.444c0.105,0.035,0.201,0.053,0.298,0.053c0.254,0,0.437-0.147,0.559-0.444l0.244-0.586l-1.213-3.092h0.55l0.84,2.385
				c0.008,0.025,0.034,0.104,0.061,0.235h0.018c0.01-0.053,0.026-0.123,0.061-0.228l0.884-2.393H59.85z"/>
			<path fill="#333333" d="M62.88,58.652h-0.497v-1.248c-0.367,0.201-0.699,0.297-1.005,0.297c-0.698,0-1.039-0.366-1.039-1.1
				v-1.049h0.497v1.021c0,0.453,0.193,0.681,0.586,0.681c0.297,0,0.619-0.087,0.961-0.262v-1.44h0.497V58.652z"/>
			<path fill="#333333" d="M64.398,58.208h-0.008v1.878h-0.498v-4.523h0.498v0.541h0.008c0.244-0.41,0.604-0.619,1.074-0.619
				c0.401,0,0.707,0.14,0.936,0.418c0.227,0.279,0.33,0.646,0.33,1.119c0,0.515-0.121,0.935-0.375,1.248
				c-0.252,0.314-0.594,0.472-1.039,0.472C64.924,58.732,64.617,58.559,64.398,58.208z M64.382,56.959v0.438
				c0,0.254,0.087,0.472,0.253,0.654c0.166,0.176,0.375,0.271,0.639,0.271c0.297,0,0.531-0.114,0.707-0.35
				c0.174-0.236,0.252-0.552,0.252-0.962c0-0.35-0.078-0.61-0.234-0.813c-0.157-0.191-0.376-0.298-0.646-0.298
				c-0.289,0-0.523,0.105-0.699,0.298C64.469,56.4,64.382,56.654,64.382,56.959z"/>
			<path fill="#333333" d="M70.021,57.23h-2.19c0.009,0.35,0.104,0.61,0.278,0.803c0.176,0.184,0.42,0.279,0.733,0.279
				c0.351,0,0.673-0.113,0.962-0.35v0.462c-0.271,0.201-0.63,0.298-1.084,0.298c-0.437,0-0.785-0.14-1.029-0.418
				c-0.254-0.279-0.375-0.683-0.375-1.188c0-0.479,0.139-0.873,0.41-1.181c0.271-0.305,0.61-0.453,1.021-0.453
				s0.716,0.132,0.942,0.394c0.219,0.263,0.332,0.629,0.332,1.092V57.23L70.021,57.23z M69.516,56.811
				c0-0.287-0.068-0.506-0.209-0.672c-0.14-0.156-0.322-0.236-0.566-0.236c-0.235,0-0.438,0.089-0.594,0.255
				c-0.166,0.166-0.264,0.385-0.307,0.653H69.516z"/>
			<path fill="#333333" d="M74.895,58.652h-0.672l-1.389-1.527h-0.008v1.527h-0.473v-1.527h-0.008l-1.39,1.527h-0.664l1.537-1.598
				l-1.449-1.502h0.629l1.327,1.449h0.01v-1.449h0.471v1.449h0.01l1.326-1.449h0.639l-1.441,1.502L74.895,58.652z"/>
			<path fill="#333333" d="M78.23,59.789h-0.429v-1.127h-2.305v1.127H75.07v-1.555h0.279c0.531-0.76,0.795-1.659,0.803-2.682h1.606
				v2.682h0.464v1.555H78.23z M77.271,58.234v-2.262h-0.69c-0.052,0.838-0.287,1.59-0.707,2.262H77.271z"/>
			<path fill="#333333" d="M81.409,57.23h-2.191c0.009,0.35,0.104,0.61,0.279,0.803c0.175,0.184,0.419,0.279,0.733,0.279
				c0.35,0,0.672-0.113,0.961-0.35v0.462c-0.271,0.201-0.629,0.298-1.084,0.298c-0.437,0-0.785-0.14-1.029-0.418
				c-0.254-0.279-0.375-0.683-0.375-1.188c0-0.479,0.139-0.873,0.41-1.181c0.27-0.305,0.611-0.453,1.021-0.453
				c0.41,0,0.716,0.132,0.943,0.394c0.218,0.263,0.331,0.629,0.331,1.092L81.409,57.23L81.409,57.23z M80.895,56.811
				c0-0.287-0.069-0.506-0.209-0.672c-0.141-0.156-0.324-0.236-0.567-0.236c-0.236,0-0.438,0.089-0.595,0.255
				c-0.166,0.166-0.262,0.385-0.306,0.653H80.895z"/>
			<path fill="#333333" d="M84.729,58.652H84.23v-1.404h-1.582v1.404H82.15v-3.1h0.498v1.274h1.582v-1.274h0.496v3.1H84.729z"/>
			<path fill="#333333" d="M88.334,58.652h-0.445v-2.471c-0.043,0.088-0.113,0.211-0.201,0.366l-1.432,2.104H85.74v-3.101h0.453
				v2.444c0.027-0.061,0.08-0.156,0.158-0.297l1.467-2.139h0.516V58.652z"/>
			<path fill="#333333" d="M91.932,58.652h-0.445v-2.471c-0.043,0.088-0.112,0.211-0.2,0.366l-1.433,2.104h-0.516v-3.101h0.454
				v2.444c0.026-0.061,0.079-0.156,0.157-0.297l1.467-2.139h0.516V58.652z M91.757,54.052c-0.026,0.288-0.147,0.507-0.341,0.673
				c-0.201,0.166-0.445,0.244-0.742,0.244c-0.305,0-0.559-0.078-0.75-0.244c-0.193-0.166-0.297-0.394-0.314-0.673h0.488
				c0.026,0.376,0.219,0.567,0.586,0.567c0.156,0,0.297-0.053,0.4-0.148c0.105-0.096,0.166-0.236,0.193-0.419H91.757z"/>
		</g>
	</g>
	<g>
		<g display="inline">
			<g>
				<path fill="#333333" d="M16.25,40.106c0.157,0,0.314,0.018,0.463,0.053l3.466,0.742c0.245,0.052,0.367,0.323,0.253,0.541
					l-3.476,6.497c-0.087,0.157-0.253,0.262-0.437,0.262h-4.41c-0.183,0-0.349-0.096-0.437-0.253l-3.318-6.042
					c-0.122-0.227,0.009-0.506,0.262-0.542l7.151-1.213C15.936,40.115,16.093,40.106,16.25,40.106z"/>
			</g>
			<g>
				<path fill="#333333" d="M14.024,52.209c0.14,0.262,0.515,0.254,0.655,0l1.249-2.331c0.131-0.245-0.043-0.55-0.323-0.55h-2.524
					c-0.279,0-0.463,0.306-0.323,0.55L14.024,52.209z"/>
			</g>
			<g>
				<path fill="#333333" d="M5.047,54.139C4.978,54,4.934,53.842,4.934,53.676V42.708c0-0.419,0.306-0.786,0.751-0.855l0.148-0.026
					c0.367-0.061,0.733,0.114,0.908,0.445l7.221,13.535c0.148,0.279,0.446,0.463,0.769,0.463h1.493c0.323,0,0.611-0.174,0.769-0.463
					l6.977-13.115c0.174-0.332,0.542-0.507,0.908-0.428h0.009c0.384,0.079,0.655,0.419,0.655,0.812v11.115
					c0,0.185-0.053,0.367-0.148,0.517l0,0c-0.087,0.147-0.218,0.271-0.384,0.356l-10.007,5.283
					c-0.323,0.174-0.716,0.148-1.013-0.053l-8.62-5.807C5.239,54.4,5.126,54.279,5.047,54.139z"/>
			</g>
		</g>
	</g>
	<g display="inline">
		<g>
			<g>
				<path fill="#333333" d="M16.216,40.106c0.152,0,0.305,0,0.458,0.051l3.456,0.763c0.254,0.05,0.356,0.305,0.254,0.559
					l-3.456,6.505c-0.102,0.153-0.254,0.254-0.458,0.254h-4.421c-0.203,0-0.355-0.102-0.457-0.254l-3.303-6.048
					c-0.102-0.203,0-0.508,0.253-0.559l7.167-1.22C15.912,40.106,16.064,40.106,16.216,40.106z"/>
			</g>
			<g>
				<path fill="#333333" d="M14.03,52.203c0.153,0.252,0.509,0.252,0.662,0l1.27-2.338c0.153-0.254-0.05-0.559-0.305-0.559h-2.541
					c-0.254,0-0.458,0.305-0.305,0.559L14.03,52.203z"/>
			</g>
			<g>
				<path fill="#333333" d="M5.035,54.132c-0.05-0.151-0.101-0.304-0.101-0.457V42.698c0-0.406,0.305-0.762,0.763-0.863l0.152-0.051
					c0.355-0.051,0.711,0.102,0.915,0.458L13.98,55.76c0.152,0.256,0.457,0.457,0.762,0.457h1.474c0.305,0,0.61-0.152,0.762-0.457
					l6.962-13.112c0.152-0.356,0.559-0.508,0.915-0.407l0,0c0.407,0.102,0.662,0.407,0.662,0.813v11.077
					c0,0.205-0.052,0.357-0.153,0.51l0,0c-0.102,0.153-0.204,0.254-0.407,0.355l-9.961,5.336c-0.305,0.152-0.712,0.152-1.017-0.05
					L5.39,54.488C5.239,54.389,5.137,54.234,5.035,54.132z"/>
			</g>
		</g>
	</g>
	<g display="inline">
		<path fill="#333333" d="M37.418,47.246h-0.846v-6.364h-3.73v6.364H32v-7.141h5.418V47.246z"/>
		<path fill="#333333" d="M46.551,47.246h-0.832v-4.791c0-0.378,0.024-0.842,0.07-1.389h-0.02c-0.08,0.322-0.151,0.553-0.214,0.691
			l-2.44,5.488h-0.408l-2.435-5.448c-0.07-0.159-0.142-0.402-0.215-0.731h-0.02c0.027,0.285,0.041,0.753,0.041,1.398v4.781h-0.807
			v-7.141h1.105l2.191,4.98c0.17,0.382,0.28,0.667,0.329,0.856h0.031c0.142-0.392,0.256-0.684,0.343-0.877l2.235-4.959h1.046V47.246
			z"/>
		<path fill="#333333" d="M54.42,46.31v0.937h-0.777V46.31h-0.136c-0.796,0-1.455-0.271-1.973-0.813
			c-0.521-0.543-0.781-1.211-0.781-2.004c0-0.758,0.261-1.396,0.779-1.913c0.516-0.518,1.179-0.776,1.985-0.776h0.125v-0.896h0.776
			v0.896h0.118c0.818,0,1.48,0.254,1.994,0.764c0.515,0.51,0.77,1.152,0.77,1.926c0,0.783-0.26,1.449-0.779,1.996
			c-0.521,0.548-1.176,0.821-1.975,0.821L54.42,46.31L54.42,46.31z M53.643,45.573v-4.068H53.52c-0.564,0-1.023,0.187-1.369,0.558
			c-0.344,0.371-0.521,0.852-0.521,1.438c0,0.631,0.175,1.134,0.515,1.509c0.34,0.376,0.795,0.563,1.362,0.563H53.643z
			 M54.42,41.505v4.068h0.128c0.569,0,1.022-0.189,1.366-0.565c0.341-0.377,0.511-0.879,0.511-1.507c0-0.597-0.17-1.079-0.511-1.446
			c-0.344-0.366-0.803-0.55-1.376-0.55H54.42z"/>
		<path fill="#333333" d="M61.512,47.365c-1.016,0-1.824-0.333-2.433-1c-0.611-0.668-0.916-1.536-0.916-2.605
			c0-1.148,0.312-2.064,0.935-2.748c0.617-0.684,1.463-1.026,2.532-1.026c0.985,0,1.78,0.332,2.382,0.997
			c0.604,0.663,0.905,1.531,0.905,2.604c0,1.166-0.31,2.086-0.929,2.764C63.373,47.027,62.546,47.365,61.512,47.365z M61.57,40.742
			c-0.752,0-1.359,0.271-1.826,0.813c-0.471,0.541-0.703,1.252-0.703,2.131s0.227,1.588,0.686,2.124
			c0.455,0.536,1.051,0.804,1.785,0.804c0.78,0,1.397-0.256,1.852-0.768c0.451-0.51,0.678-1.226,0.678-2.145
			c0-0.943-0.218-1.672-0.657-2.188C62.945,41,62.34,40.742,61.57,40.742z"/>
		<path fill="#333333" d="M67.157,44.547v2.699h-0.839v-7.141h1.963c0.765,0,1.355,0.186,1.775,0.558
			c0.42,0.371,0.631,0.896,0.631,1.573c0,0.678-0.232,1.232-0.699,1.664s-1.098,0.646-1.891,0.646L67.157,44.547L67.157,44.547z
			 M67.157,40.862v2.928h0.877c0.577,0,1.017-0.132,1.321-0.396c0.304-0.265,0.457-0.637,0.457-1.119
			c0-0.942-0.56-1.413-1.672-1.413H67.157z"/>
		<path fill="#333333" d="M76.893,46.947c-0.525,0.279-1.187,0.418-1.971,0.418c-1.016,0-1.831-0.326-2.439-0.98
			c-0.614-0.654-0.918-1.513-0.918-2.574c0-1.143,0.347-2.065,1.031-2.77c0.688-0.703,1.559-1.055,2.614-1.055
			c0.679,0,1.238,0.098,1.683,0.294v0.891c-0.514-0.286-1.076-0.429-1.691-0.429c-0.821,0-1.485,0.273-1.994,0.822
			c-0.51,0.548-0.766,1.279-0.766,2.195c0,0.871,0.236,1.563,0.717,2.08c0.474,0.516,1.098,0.773,1.874,0.773
			c0.717,0,1.337-0.159,1.86-0.478V46.947L76.893,46.947z"/>
		<path fill="#333333" d="M83.874,47.246h-0.925l-0.758-2.002h-3.027l-0.712,2.002H77.52l2.738-7.141h0.867L83.874,47.246z
			 M81.918,44.492l-1.12-3.042c-0.039-0.1-0.077-0.259-0.11-0.478h-0.021c-0.034,0.201-0.069,0.36-0.112,0.478l-1.111,3.042H81.918z
			"/>
		<path fill="#333333" d="M90.682,47.246h-0.838v-5.158c0-0.467,0.018-0.793,0.053-0.982h-0.031
			c-0.064,0.163-0.139,0.313-0.229,0.449l-3.676,5.691h-1.036v-7.141h0.837v5.03c0,0.537-0.016,0.889-0.037,1.051h0.019
			c0.071-0.146,0.164-0.306,0.278-0.479l3.584-5.602h1.076V47.246L90.682,47.246z M89.626,37.934
			c-0.051,0.468-0.239,0.838-0.563,1.108c-0.33,0.27-0.738,0.405-1.229,0.405c-0.506,0-0.916-0.135-1.232-0.405
			c-0.318-0.271-0.49-0.641-0.521-1.108h0.806c0.045,0.625,0.364,0.937,0.959,0.937c0.264,0,0.479-0.083,0.653-0.247
			s0.28-0.395,0.319-0.69H89.626z"/>
		<path fill="#333333" d="M96.787,40.862h-2.063v6.384h-0.836v-6.384H91.83v-0.757h4.957V40.862z"/>
	</g>
	<g display="inline">
		<path fill="#333333" d="M35.103,55.467h-0.407v-1.093h-2.232v1.093h-0.41v-1.5h0.267c0.512-0.738,0.771-1.603,0.779-2.593h1.559
			v2.593h0.445L35.103,55.467L35.103,55.467z M34.177,53.967v-2.186h-0.665c-0.053,0.809-0.28,1.537-0.683,2.186H34.177z"/>
		<path fill="#333333" d="M37.956,54.374h-0.478v-2.593h-0.697c-0.08,0.971-0.217,1.652-0.412,2.045
			c-0.195,0.393-0.456,0.589-0.784,0.589c-0.1,0-0.186-0.015-0.258-0.041v-0.413c0.068,0.035,0.143,0.053,0.223,0.053
			c0.43,0,0.706-0.88,0.829-2.64h1.576L37.956,54.374L37.956,54.374z"/>
		<path fill="#333333" d="M40.979,54.374h-0.48v-1.242h-0.401c-0.193,0-0.369,0.156-0.527,0.47l-0.39,0.772h-0.557l0.504-0.926
			c0.117-0.216,0.259-0.356,0.425-0.425c-0.234-0.031-0.413-0.117-0.536-0.258c-0.123-0.142-0.185-0.316-0.185-0.527
			c0-0.266,0.096-0.477,0.289-0.633c0.192-0.153,0.462-0.231,0.81-0.231h1.049L40.979,54.374L40.979,54.374z M40.499,52.73v-0.946
			h-0.568c-0.404,0-0.606,0.153-0.606,0.46c0,0.324,0.196,0.486,0.589,0.486H40.499z"/>
		<path fill="#333333" d="M46.08,54.374h-0.674l-1.324-1.44H44.07v1.44h-0.48v-3h0.48v1.374h0.012l1.26-1.374h0.63L44.58,52.82
			L46.08,54.374z"/>
		<path fill="#333333" d="M47.826,54.443c-0.443,0-0.797-0.139-1.062-0.42c-0.265-0.279-0.397-0.651-0.397-1.114
			c0-0.505,0.138-0.897,0.413-1.181c0.275-0.285,0.647-0.426,1.116-0.426c0.447,0,0.797,0.139,1.048,0.413
			c0.251,0.275,0.375,0.657,0.375,1.146c0,0.479-0.134,0.863-0.405,1.15C48.643,54.3,48.281,54.443,47.826,54.443z M47.861,51.708
			c-0.308,0-0.552,0.104-0.732,0.313c-0.18,0.211-0.27,0.5-0.27,0.869c0,0.355,0.091,0.637,0.272,0.842
			c0.181,0.205,0.425,0.308,0.729,0.308c0.311,0,0.55-0.101,0.717-0.302s0.25-0.487,0.25-0.858c0-0.375-0.083-0.664-0.25-0.866
			C48.41,51.811,48.171,51.708,47.861,51.708z"/>
		<path fill="#333333" d="M53.328,54.374h-0.475V51.9c-0.043,0.125-0.109,0.31-0.199,0.552l-0.752,1.922h-0.43L50.7,52.452
			c-0.041-0.104-0.107-0.287-0.199-0.552v2.474h-0.414v-3H50.7l0.791,1.957c0.057,0.144,0.129,0.34,0.217,0.592l0.213-0.58
			l0.769-1.969h0.64L53.328,54.374L53.328,54.374z"/>
		<path fill="#333333" d="M57.541,54.374h-0.475V51.9c-0.043,0.125-0.109,0.31-0.199,0.552l-0.75,1.922h-0.432l-0.773-1.922
			c-0.041-0.104-0.107-0.287-0.199-0.552v2.474h-0.412v-3h0.611l0.791,1.957c0.057,0.144,0.129,0.34,0.217,0.592l0.215-0.58
			l0.768-1.969h0.64L57.541,54.374L57.541,54.374z"/>
		<path fill="#333333" d="M60.924,52.994h-2.117c0.008,0.334,0.098,0.592,0.271,0.773c0.172,0.181,0.407,0.271,0.709,0.271
			c0.338,0,0.647-0.111,0.932-0.334v0.451c-0.264,0.191-0.612,0.287-1.047,0.287c-0.424,0-0.756-0.137-0.998-0.408
			c-0.241-0.273-0.362-0.656-0.362-1.15c0-0.467,0.131-0.847,0.396-1.141s0.594-0.441,0.985-0.441c0.393,0,0.695,0.127,0.91,0.381
			s0.322,0.606,0.322,1.059V52.994z M60.432,52.587c-0.002-0.276-0.068-0.493-0.199-0.647c-0.133-0.153-0.315-0.23-0.551-0.23
			c-0.227,0-0.418,0.081-0.576,0.243c-0.157,0.162-0.256,0.374-0.293,0.636L60.432,52.587L60.432,52.587z"/>
		<path fill="#333333" d="M62.145,53.939h-0.012v1.813h-0.48v-4.38h0.48V51.9h0.012c0.236-0.398,0.582-0.599,1.037-0.599
			c0.387,0,0.688,0.136,0.904,0.402c0.217,0.271,0.326,0.629,0.326,1.08c0,0.502-0.123,0.903-0.367,1.205
			c-0.244,0.303-0.578,0.452-1.002,0.452C62.654,54.443,62.355,54.275,62.145,53.939z M62.133,52.73v0.418
			c0,0.248,0.08,0.459,0.242,0.631c0.16,0.175,0.365,0.261,0.613,0.261c0.291,0,0.518-0.11,0.684-0.334
			c0.164-0.224,0.248-0.532,0.248-0.929c0-0.334-0.078-0.596-0.232-0.785c-0.153-0.189-0.362-0.284-0.627-0.284
			c-0.278,0-0.504,0.099-0.674,0.291C62.217,52.193,62.133,52.438,62.133,52.73z"/>
		<path fill="#333333" d="M67.596,54.374h-0.477v-1.207c-0.352,0.19-0.676,0.287-0.973,0.287c-0.672,0-1.008-0.354-1.008-1.065
			v-1.015h0.479v0.99c0,0.438,0.188,0.659,0.567,0.659c0.289,0,0.601-0.084,0.933-0.252v-1.397h0.478V54.374L67.596,54.374z"/>
		<path fill="#333333" d="M70.979,52.994h-2.117c0.009,0.334,0.099,0.592,0.271,0.773c0.173,0.181,0.408,0.271,0.709,0.271
			c0.339,0,0.647-0.111,0.933-0.334v0.451c-0.265,0.191-0.613,0.287-1.047,0.287c-0.425,0-0.756-0.137-0.998-0.408
			c-0.242-0.273-0.363-0.656-0.363-1.15c0-0.467,0.131-0.847,0.396-1.141c0.264-0.294,0.594-0.441,0.985-0.441
			s0.694,0.127,0.91,0.381c0.215,0.254,0.321,0.606,0.321,1.059V52.994z M70.486,52.587c-0.002-0.276-0.068-0.493-0.199-0.647
			c-0.133-0.153-0.316-0.23-0.551-0.23c-0.228,0-0.418,0.081-0.576,0.243s-0.256,0.374-0.293,0.636L70.486,52.587L70.486,52.587z"/>
		<path fill="#333333" d="M73.752,54.236c-0.23,0.139-0.504,0.207-0.82,0.207c-0.428,0-0.772-0.139-1.035-0.418
			c-0.264-0.276-0.395-0.639-0.395-1.082c0-0.493,0.141-0.891,0.424-1.19c0.283-0.299,0.662-0.448,1.135-0.448
			c0.265,0,0.496,0.049,0.697,0.146v0.491c-0.223-0.155-0.461-0.233-0.715-0.233c-0.307,0-0.559,0.108-0.754,0.33
			c-0.197,0.219-0.295,0.508-0.295,0.864c0,0.353,0.092,0.63,0.277,0.832c0.184,0.203,0.432,0.306,0.742,0.306
			c0.262,0,0.508-0.087,0.737-0.261L73.752,54.236L73.752,54.236z"/>
		<path fill="#333333" d="M76.969,54.374h-0.674l-1.324-1.44h-0.012v1.44h-0.48v-3h0.48v1.374h0.012l1.26-1.374h0.629l-1.391,1.446
			L76.969,54.374z"/>
		<path fill="#333333" d="M78.715,54.443c-0.443,0-0.799-0.139-1.063-0.42c-0.267-0.279-0.396-0.651-0.396-1.114
			c0-0.505,0.137-0.897,0.412-1.181c0.275-0.285,0.648-0.426,1.117-0.426c0.447,0,0.795,0.139,1.047,0.413
			c0.25,0.275,0.377,0.657,0.377,1.146c0,0.479-0.137,0.863-0.406,1.15C79.531,54.301,79.17,54.443,78.715,54.443z M78.75,51.708
			c-0.309,0-0.553,0.104-0.732,0.313c-0.18,0.211-0.27,0.5-0.27,0.869c0,0.355,0.09,0.637,0.271,0.842
			c0.181,0.205,0.426,0.308,0.729,0.308c0.312,0,0.549-0.101,0.717-0.302c0.166-0.201,0.25-0.487,0.25-0.858
			c0-0.375-0.084-0.664-0.25-0.866C79.299,51.811,79.061,51.708,78.75,51.708z"/>
		<path fill="#333333" d="M82.643,51.784h-1.186v2.59h-0.48v-3h1.666V51.784z"/>
		<path fill="#333333" d="M84.527,54.443c-0.443,0-0.799-0.139-1.063-0.42c-0.266-0.279-0.396-0.651-0.396-1.114
			c0-0.505,0.137-0.897,0.412-1.181c0.274-0.285,0.647-0.426,1.117-0.426c0.446,0,0.795,0.139,1.047,0.413
			c0.25,0.275,0.377,0.657,0.377,1.146c0,0.479-0.138,0.863-0.406,1.15C85.344,54.301,84.982,54.443,84.527,54.443z M84.563,51.708
			c-0.309,0-0.553,0.104-0.731,0.313c-0.181,0.211-0.271,0.5-0.271,0.869c0,0.355,0.09,0.637,0.271,0.842s0.426,0.308,0.73,0.308
			c0.311,0,0.549-0.101,0.717-0.302c0.166-0.201,0.25-0.487,0.25-0.858c0-0.375-0.084-0.664-0.25-0.866
			C85.111,51.811,84.873,51.708,84.563,51.708z"/>
		<path fill="#333333" d="M34.531,60.236c-0.23,0.139-0.504,0.207-0.82,0.207c-0.428,0-0.773-0.139-1.036-0.418
			c-0.263-0.276-0.394-0.639-0.394-1.082c0-0.493,0.142-0.891,0.425-1.19c0.283-0.299,0.661-0.448,1.134-0.448
			c0.264,0,0.496,0.049,0.697,0.146v0.491c-0.223-0.155-0.461-0.233-0.715-0.233c-0.307,0-0.558,0.108-0.754,0.33
			c-0.196,0.219-0.294,0.508-0.294,0.864c0,0.353,0.092,0.63,0.277,0.832c0.185,0.203,0.432,0.306,0.743,0.306
			c0.262,0,0.508-0.087,0.738-0.261L34.531,60.236L34.531,60.236z"/>
		<path fill="#333333" d="M37.669,58.994h-2.118c0.008,0.334,0.098,0.592,0.27,0.773c0.172,0.181,0.408,0.271,0.709,0.271
			c0.338,0,0.648-0.111,0.932-0.334v0.451c-0.264,0.191-0.612,0.287-1.046,0.287c-0.424,0-0.757-0.137-0.999-0.408
			c-0.242-0.273-0.363-0.656-0.363-1.15c0-0.467,0.132-0.847,0.397-1.141c0.265-0.294,0.593-0.441,0.986-0.441
			s0.696,0.127,0.911,0.381c0.215,0.254,0.322,0.606,0.322,1.059L37.669,58.994L37.669,58.994z M37.177,58.587
			c-0.002-0.276-0.069-0.493-0.201-0.647c-0.132-0.153-0.315-0.23-0.549-0.23c-0.227,0-0.419,0.081-0.577,0.243
			c-0.158,0.162-0.256,0.374-0.293,0.636L37.177,58.587L37.177,58.587z"/>
		<path fill="#333333" d="M40.886,60.374h-0.674l-1.324-1.44h-0.012v1.44h-0.48v-3h0.48v1.374h0.012l1.26-1.374h0.63l-1.392,1.446
			L40.886,60.374z"/>
		<path fill="#333333" d="M43.262,57.784h-0.899v2.59h-0.48v-2.59h-0.902v-0.41h2.282L43.262,57.784L43.262,57.784z"/>
		<path fill="#333333" d="M45.093,60.443c-0.443,0-0.797-0.139-1.062-0.42c-0.265-0.279-0.397-0.651-0.397-1.114
			c0-0.505,0.138-0.897,0.413-1.181c0.275-0.285,0.647-0.426,1.116-0.426c0.447,0,0.796,0.139,1.047,0.413
			c0.251,0.275,0.376,0.657,0.376,1.146c0,0.479-0.135,0.863-0.406,1.15C45.909,60.3,45.548,60.443,45.093,60.443z M45.128,57.708
			c-0.309,0-0.553,0.104-0.732,0.313c-0.18,0.211-0.27,0.5-0.27,0.869c0,0.355,0.091,0.637,0.272,0.842s0.425,0.308,0.729,0.308
			c0.311,0,0.549-0.101,0.716-0.302s0.25-0.487,0.25-0.858c0-0.375-0.083-0.664-0.25-0.866
			C45.676,57.811,45.438,57.708,45.128,57.708z"/>
		<path fill="#333333" d="M47.847,59.939h-0.012v1.813h-0.481v-4.38h0.481V57.9h0.012c0.235-0.398,0.581-0.599,1.037-0.599
			c0.386,0,0.687,0.136,0.904,0.402c0.217,0.271,0.326,0.629,0.326,1.08c0,0.502-0.123,0.903-0.367,1.205
			c-0.244,0.303-0.578,0.452-1.001,0.452C48.357,60.443,48.058,60.275,47.847,59.939z M47.835,58.73v0.418
			c0,0.248,0.08,0.459,0.241,0.631c0.161,0.175,0.365,0.261,0.614,0.261c0.29,0,0.519-0.11,0.683-0.334
			c0.166-0.224,0.248-0.532,0.248-0.929c0-0.334-0.078-0.596-0.232-0.785c-0.154-0.189-0.363-0.284-0.626-0.284
			c-0.279,0-0.504,0.099-0.674,0.291C47.919,58.193,47.835,58.438,47.835,58.73z"/>
		<path fill="#333333" d="M53.029,60.374h-0.48v-0.47h-0.012c-0.208,0.359-0.518,0.539-0.924,0.539c-0.299,0-0.532-0.078-0.7-0.236
			c-0.17-0.158-0.254-0.368-0.254-0.63c0-0.562,0.329-0.888,0.989-0.979l0.899-0.125c0-0.511-0.206-0.766-0.618-0.766
			c-0.361,0-0.688,0.123-0.979,0.369v-0.492c0.295-0.188,0.635-0.281,1.02-0.281c0.706,0,1.059,0.373,1.059,1.119V60.374z
			 M52.549,58.855l-0.724,0.101c-0.224,0.03-0.392,0.086-0.505,0.166c-0.112,0.078-0.17,0.219-0.17,0.42
			c0,0.146,0.054,0.267,0.156,0.358c0.105,0.094,0.244,0.14,0.418,0.14c0.238,0,0.437-0.084,0.59-0.25
			c0.156-0.168,0.233-0.379,0.233-0.636L52.549,58.855L52.549,58.855z"/>
	</g>
</g>
<g id="Слой_3">
	<g>
		<path fill="#ED808A" d="M19.143,51.702l6.234,2.981c0.092-0.153,0.145-0.33,0.145-0.516V43.06c0-0.392-0.275-0.731-0.657-0.812
			l-0.014-0.003c-0.364-0.078-0.736,0.099-0.907,0.43L19.143,51.702z"/>
		<path fill="#FFE165" d="M16.236,40.093v8.087h-4.131c-0.181,0-0.347-0.099-0.435-0.257L8.354,41.88
			c-0.123-0.224,0.012-0.502,0.264-0.544l7.151-1.209C15.923,40.101,16.08,40.089,16.236,40.093"/>
		<path fill="#ED808A" d="M16.236,48.18h0.271c0.183,0,0.352-0.101,0.437-0.262l3.473-6.493c0.117-0.217-0.008-0.487-0.25-0.538
			L16.7,40.147c-0.153-0.033-0.308-0.05-0.464-0.054V48.18z"/>
		<path fill="#FFE165" d="M15.538,50.547l0.371-0.694c0.132-0.247-0.047-0.546-0.328-0.546h-2.524c-0.282,0-0.46,0.302-0.325,0.549
			l0.762,1.39L15.538,50.547z"/>
		<path fill="#209ED5" d="M13.494,51.246l2.044-0.699l-0.875,1.636c-0.139,0.26-0.511,0.262-0.652,0.004L13.494,51.246z"/>
		<path fill="#209ED5" d="M19.143,51.702l6.234,2.981c-0.091,0.148-0.221,0.273-0.382,0.357l-10.002,5.284
			c-0.323,0.169-0.711,0.149-1.014-0.056l-8.611-5.8c-0.138-0.092-0.249-0.217-0.323-0.357l6.787-2.306l0,0l2.121,3.975
			c0.15,0.285,0.443,0.458,0.763,0.458h1.495c0.319,0,0.614-0.177,0.763-0.458L19.143,51.702z"/>
		<path fill="#FFE165" d="M11.831,51.807l-5.098-9.551c-0.175-0.329-0.541-0.509-0.908-0.447l-0.148,0.025
			c-0.442,0.074-0.747,0.435-0.747,0.857v10.958c0,0.165,0.04,0.322,0.114,0.463L11.831,51.807z"/>
	</g>
	<g>
		<path fill="#209ED5" d="M37.418,47.246h-0.846v-6.364h-3.73v6.364H32v-7.141h5.418V47.246z"/>
		<path fill="#209ED5" d="M46.551,47.246h-0.832v-4.791c0-0.378,0.024-0.842,0.07-1.389h-0.02c-0.08,0.322-0.151,0.553-0.214,0.691
			l-2.44,5.488h-0.408l-2.435-5.448c-0.07-0.159-0.142-0.402-0.215-0.731h-0.02c0.027,0.285,0.041,0.753,0.041,1.398v4.781h-0.807
			v-7.141h1.105l2.191,4.98c0.17,0.382,0.28,0.667,0.329,0.856h0.031c0.142-0.392,0.256-0.684,0.343-0.877l2.235-4.959h1.046V47.246
			z"/>
		<path fill="#209ED5" d="M54.42,46.31v0.937h-0.777V46.31h-0.136c-0.796,0-1.455-0.271-1.973-0.813
			c-0.521-0.543-0.781-1.211-0.781-2.004c0-0.758,0.261-1.396,0.779-1.913c0.516-0.518,1.179-0.776,1.985-0.776h0.125v-0.896h0.776
			v0.896h0.118c0.818,0,1.48,0.254,1.994,0.764c0.515,0.51,0.77,1.152,0.77,1.926c0,0.783-0.26,1.449-0.779,1.996
			c-0.521,0.548-1.176,0.821-1.975,0.821L54.42,46.31L54.42,46.31z M53.643,45.573v-4.068H53.52c-0.564,0-1.023,0.187-1.369,0.558
			c-0.344,0.371-0.521,0.852-0.521,1.438c0,0.631,0.175,1.134,0.515,1.509c0.34,0.376,0.795,0.563,1.362,0.563H53.643z
			 M54.42,41.505v4.068h0.128c0.569,0,1.022-0.189,1.366-0.565c0.341-0.377,0.511-0.879,0.511-1.507c0-0.597-0.17-1.079-0.511-1.446
			c-0.344-0.366-0.803-0.55-1.376-0.55H54.42z"/>
		<path fill="#209ED5" d="M61.512,47.365c-1.016,0-1.824-0.333-2.433-1c-0.611-0.668-0.916-1.536-0.916-2.605
			c0-1.148,0.312-2.064,0.935-2.748c0.617-0.684,1.463-1.026,2.532-1.026c0.985,0,1.78,0.332,2.382,0.997
			c0.604,0.663,0.905,1.531,0.905,2.604c0,1.166-0.31,2.086-0.929,2.764C63.373,47.027,62.546,47.365,61.512,47.365z M61.57,40.742
			c-0.752,0-1.359,0.271-1.826,0.813c-0.471,0.541-0.703,1.252-0.703,2.131s0.227,1.588,0.686,2.124
			c0.455,0.536,1.051,0.804,1.785,0.804c0.78,0,1.397-0.256,1.852-0.768c0.451-0.51,0.678-1.226,0.678-2.145
			c0-0.943-0.218-1.672-0.657-2.188C62.945,41,62.34,40.742,61.57,40.742z"/>
		<path fill="#209ED5" d="M67.157,44.547v2.699h-0.839v-7.141h1.963c0.765,0,1.355,0.186,1.775,0.558
			c0.42,0.371,0.631,0.896,0.631,1.573c0,0.678-0.232,1.232-0.699,1.664s-1.098,0.646-1.891,0.646L67.157,44.547L67.157,44.547z
			 M67.157,40.862v2.928h0.877c0.577,0,1.017-0.132,1.321-0.396c0.304-0.265,0.457-0.637,0.457-1.119
			c0-0.942-0.56-1.413-1.672-1.413H67.157z"/>
		<path fill="#209ED5" d="M76.893,46.947c-0.525,0.279-1.187,0.418-1.971,0.418c-1.016,0-1.831-0.326-2.439-0.98
			c-0.614-0.654-0.918-1.513-0.918-2.574c0-1.143,0.347-2.065,1.031-2.77c0.688-0.703,1.559-1.055,2.614-1.055
			c0.679,0,1.238,0.098,1.683,0.294v0.891c-0.514-0.286-1.076-0.429-1.691-0.429c-0.821,0-1.485,0.273-1.994,0.822
			c-0.51,0.548-0.766,1.279-0.766,2.195c0,0.871,0.236,1.563,0.717,2.08c0.474,0.516,1.098,0.773,1.874,0.773
			c0.717,0,1.337-0.159,1.86-0.478V46.947L76.893,46.947z"/>
		<path fill="#209ED5" d="M83.874,47.246h-0.925l-0.758-2.002h-3.027l-0.712,2.002H77.52l2.738-7.141h0.867L83.874,47.246z
			 M81.918,44.492l-1.12-3.042c-0.039-0.1-0.077-0.259-0.11-0.478h-0.021c-0.034,0.201-0.069,0.36-0.112,0.478l-1.111,3.042H81.918z
			"/>
		<path fill="#209ED5" d="M90.682,47.246h-0.838v-5.158c0-0.467,0.018-0.793,0.053-0.982h-0.031
			c-0.064,0.163-0.139,0.313-0.229,0.449l-3.676,5.691h-1.036v-7.141h0.837v5.03c0,0.537-0.016,0.889-0.037,1.051h0.019
			c0.071-0.146,0.164-0.306,0.278-0.479l3.584-5.602h1.076V47.246L90.682,47.246z M89.626,37.934
			c-0.051,0.468-0.239,0.838-0.563,1.108c-0.33,0.27-0.738,0.405-1.229,0.405c-0.506,0-0.916-0.135-1.232-0.405
			c-0.318-0.271-0.49-0.641-0.521-1.108h0.806c0.045,0.625,0.364,0.937,0.959,0.937c0.264,0,0.479-0.083,0.653-0.247
			s0.28-0.395,0.319-0.69H89.626z"/>
		<path fill="#209ED5" d="M96.787,40.862h-2.063v6.384h-0.836v-6.384H91.83v-0.757h4.957V40.862z"/>
	</g>
	<g>
		<path fill="#209ED5" d="M35.103,55.467h-0.407v-1.093h-2.232v1.093h-0.41v-1.5h0.267c0.512-0.738,0.771-1.603,0.779-2.593h1.559
			v2.593h0.445L35.103,55.467L35.103,55.467z M34.177,53.967v-2.186h-0.665c-0.053,0.809-0.28,1.537-0.683,2.186H34.177z"/>
		<path fill="#209ED5" d="M37.956,54.374h-0.478v-2.593h-0.697c-0.08,0.971-0.217,1.652-0.412,2.045
			c-0.195,0.393-0.456,0.589-0.784,0.589c-0.1,0-0.186-0.015-0.258-0.041v-0.413c0.068,0.035,0.143,0.053,0.223,0.053
			c0.43,0,0.706-0.88,0.829-2.64h1.576L37.956,54.374L37.956,54.374z"/>
		<path fill="#209ED5" d="M40.979,54.374h-0.48v-1.242h-0.401c-0.193,0-0.369,0.156-0.527,0.47l-0.39,0.772h-0.557l0.504-0.926
			c0.117-0.216,0.259-0.356,0.425-0.425c-0.234-0.031-0.413-0.117-0.536-0.258c-0.123-0.142-0.185-0.316-0.185-0.527
			c0-0.266,0.096-0.477,0.289-0.633c0.192-0.153,0.462-0.231,0.81-0.231h1.049L40.979,54.374L40.979,54.374z M40.499,52.73v-0.946
			h-0.568c-0.404,0-0.606,0.153-0.606,0.46c0,0.324,0.196,0.486,0.589,0.486H40.499z"/>
		<path fill="#209ED5" d="M46.08,54.374h-0.674l-1.324-1.44H44.07v1.44h-0.48v-3h0.48v1.374h0.012l1.26-1.374h0.63L44.58,52.82
			L46.08,54.374z"/>
		<path fill="#209ED5" d="M47.826,54.443c-0.443,0-0.797-0.139-1.062-0.42c-0.265-0.279-0.397-0.651-0.397-1.114
			c0-0.505,0.138-0.897,0.413-1.181c0.275-0.285,0.647-0.426,1.116-0.426c0.447,0,0.797,0.139,1.048,0.413
			c0.251,0.275,0.375,0.657,0.375,1.146c0,0.479-0.134,0.863-0.405,1.15C48.643,54.3,48.281,54.443,47.826,54.443z M47.861,51.708
			c-0.308,0-0.552,0.104-0.732,0.313c-0.18,0.211-0.27,0.5-0.27,0.869c0,0.355,0.091,0.637,0.272,0.842
			c0.181,0.205,0.425,0.308,0.729,0.308c0.311,0,0.55-0.101,0.717-0.302s0.25-0.487,0.25-0.858c0-0.375-0.083-0.664-0.25-0.866
			C48.41,51.811,48.171,51.708,47.861,51.708z"/>
		<path fill="#209ED5" d="M53.328,54.374h-0.475V51.9c-0.043,0.125-0.109,0.31-0.199,0.552l-0.752,1.922h-0.43L50.7,52.452
			c-0.041-0.104-0.107-0.287-0.199-0.552v2.474h-0.414v-3H50.7l0.791,1.957c0.057,0.144,0.129,0.34,0.217,0.592l0.213-0.58
			l0.769-1.969h0.64L53.328,54.374L53.328,54.374z"/>
		<path fill="#209ED5" d="M57.541,54.374h-0.475V51.9c-0.043,0.125-0.109,0.31-0.199,0.552l-0.75,1.922h-0.432l-0.773-1.922
			c-0.041-0.104-0.107-0.287-0.199-0.552v2.474h-0.412v-3h0.611l0.791,1.957c0.057,0.144,0.129,0.34,0.217,0.592l0.215-0.58
			l0.768-1.969h0.64L57.541,54.374L57.541,54.374z"/>
		<path fill="#209ED5" d="M60.924,52.994h-2.117c0.008,0.334,0.098,0.592,0.271,0.773c0.172,0.181,0.407,0.271,0.709,0.271
			c0.338,0,0.647-0.111,0.932-0.334v0.451c-0.264,0.191-0.612,0.287-1.047,0.287c-0.424,0-0.756-0.137-0.998-0.408
			c-0.241-0.273-0.362-0.656-0.362-1.15c0-0.467,0.131-0.847,0.396-1.141s0.594-0.441,0.985-0.441c0.393,0,0.695,0.127,0.91,0.381
			s0.322,0.606,0.322,1.059V52.994z M60.432,52.587c-0.002-0.276-0.068-0.493-0.199-0.647c-0.133-0.153-0.315-0.23-0.551-0.23
			c-0.227,0-0.418,0.081-0.576,0.243c-0.157,0.162-0.256,0.374-0.293,0.636L60.432,52.587L60.432,52.587z"/>
		<path fill="#209ED5" d="M62.145,53.939h-0.012v1.813h-0.48v-4.38h0.48V51.9h0.012c0.236-0.398,0.582-0.599,1.037-0.599
			c0.387,0,0.688,0.136,0.904,0.402c0.217,0.271,0.326,0.629,0.326,1.08c0,0.502-0.123,0.903-0.367,1.205
			c-0.244,0.303-0.578,0.452-1.002,0.452C62.654,54.443,62.355,54.275,62.145,53.939z M62.133,52.73v0.418
			c0,0.248,0.08,0.459,0.242,0.631c0.16,0.175,0.365,0.261,0.613,0.261c0.291,0,0.518-0.11,0.684-0.334
			c0.164-0.224,0.248-0.532,0.248-0.929c0-0.334-0.078-0.596-0.232-0.785c-0.153-0.189-0.362-0.284-0.627-0.284
			c-0.278,0-0.504,0.099-0.674,0.291C62.217,52.193,62.133,52.438,62.133,52.73z"/>
		<path fill="#209ED5" d="M67.596,54.374h-0.477v-1.207c-0.352,0.19-0.676,0.287-0.973,0.287c-0.672,0-1.008-0.354-1.008-1.065
			v-1.015h0.479v0.99c0,0.438,0.188,0.659,0.567,0.659c0.289,0,0.601-0.084,0.933-0.252v-1.397h0.478V54.374L67.596,54.374z"/>
		<path fill="#209ED5" d="M70.979,52.994h-2.117c0.009,0.334,0.099,0.592,0.271,0.773c0.173,0.181,0.408,0.271,0.709,0.271
			c0.339,0,0.647-0.111,0.933-0.334v0.451c-0.265,0.191-0.613,0.287-1.047,0.287c-0.425,0-0.756-0.137-0.998-0.408
			c-0.242-0.273-0.363-0.656-0.363-1.15c0-0.467,0.131-0.847,0.396-1.141c0.264-0.294,0.594-0.441,0.985-0.441
			s0.694,0.127,0.91,0.381c0.215,0.254,0.321,0.606,0.321,1.059V52.994z M70.486,52.587c-0.002-0.276-0.068-0.493-0.199-0.647
			c-0.133-0.153-0.316-0.23-0.551-0.23c-0.228,0-0.418,0.081-0.576,0.243s-0.256,0.374-0.293,0.636L70.486,52.587L70.486,52.587z"/>
		<path fill="#209ED5" d="M73.752,54.236c-0.23,0.139-0.504,0.207-0.82,0.207c-0.428,0-0.772-0.139-1.035-0.418
			c-0.264-0.276-0.395-0.639-0.395-1.082c0-0.493,0.141-0.891,0.424-1.19c0.283-0.299,0.662-0.448,1.135-0.448
			c0.265,0,0.496,0.049,0.697,0.146v0.491c-0.223-0.155-0.461-0.233-0.715-0.233c-0.307,0-0.559,0.108-0.754,0.33
			c-0.197,0.219-0.295,0.508-0.295,0.864c0,0.353,0.092,0.63,0.277,0.832c0.184,0.203,0.432,0.306,0.742,0.306
			c0.262,0,0.508-0.087,0.737-0.261L73.752,54.236L73.752,54.236z"/>
		<path fill="#209ED5" d="M76.969,54.374h-0.674l-1.324-1.44h-0.012v1.44h-0.48v-3h0.48v1.374h0.012l1.26-1.374h0.629l-1.391,1.446
			L76.969,54.374z"/>
		<path fill="#209ED5" d="M78.715,54.443c-0.443,0-0.799-0.139-1.063-0.42c-0.267-0.279-0.396-0.651-0.396-1.114
			c0-0.505,0.137-0.897,0.412-1.181c0.275-0.285,0.648-0.426,1.117-0.426c0.447,0,0.795,0.139,1.047,0.413
			c0.25,0.275,0.377,0.657,0.377,1.146c0,0.479-0.137,0.863-0.406,1.15C79.531,54.301,79.17,54.443,78.715,54.443z M78.75,51.708
			c-0.309,0-0.553,0.104-0.732,0.313c-0.18,0.211-0.27,0.5-0.27,0.869c0,0.355,0.09,0.637,0.271,0.842
			c0.181,0.205,0.426,0.308,0.729,0.308c0.312,0,0.549-0.101,0.717-0.302c0.166-0.201,0.25-0.487,0.25-0.858
			c0-0.375-0.084-0.664-0.25-0.866C79.299,51.811,79.061,51.708,78.75,51.708z"/>
		<path fill="#209ED5" d="M82.643,51.784h-1.186v2.59h-0.48v-3h1.666V51.784z"/>
		<path fill="#209ED5" d="M84.527,54.443c-0.443,0-0.799-0.139-1.063-0.42c-0.266-0.279-0.396-0.651-0.396-1.114
			c0-0.505,0.137-0.897,0.412-1.181c0.274-0.285,0.647-0.426,1.117-0.426c0.446,0,0.795,0.139,1.047,0.413
			c0.25,0.275,0.377,0.657,0.377,1.146c0,0.479-0.138,0.863-0.406,1.15C85.344,54.301,84.982,54.443,84.527,54.443z M84.563,51.708
			c-0.309,0-0.553,0.104-0.731,0.313c-0.181,0.211-0.271,0.5-0.271,0.869c0,0.355,0.09,0.637,0.271,0.842s0.426,0.308,0.73,0.308
			c0.311,0,0.549-0.101,0.717-0.302c0.166-0.201,0.25-0.487,0.25-0.858c0-0.375-0.084-0.664-0.25-0.866
			C85.111,51.811,84.873,51.708,84.563,51.708z"/>
		<path fill="#209ED5" d="M34.531,60.236c-0.23,0.139-0.504,0.207-0.82,0.207c-0.428,0-0.773-0.139-1.036-0.418
			c-0.263-0.276-0.394-0.639-0.394-1.082c0-0.493,0.142-0.891,0.425-1.19c0.283-0.299,0.661-0.448,1.134-0.448
			c0.264,0,0.496,0.049,0.697,0.146v0.491c-0.223-0.155-0.461-0.233-0.715-0.233c-0.307,0-0.558,0.108-0.754,0.33
			c-0.196,0.219-0.294,0.508-0.294,0.864c0,0.353,0.092,0.63,0.277,0.832c0.185,0.203,0.432,0.306,0.743,0.306
			c0.262,0,0.508-0.087,0.738-0.261L34.531,60.236L34.531,60.236z"/>
		<path fill="#209ED5" d="M37.669,58.994h-2.118c0.008,0.334,0.098,0.592,0.27,0.773c0.172,0.181,0.408,0.271,0.709,0.271
			c0.338,0,0.648-0.111,0.932-0.334v0.451c-0.264,0.191-0.612,0.287-1.046,0.287c-0.424,0-0.757-0.137-0.999-0.408
			c-0.242-0.273-0.363-0.656-0.363-1.15c0-0.467,0.132-0.847,0.397-1.141c0.265-0.294,0.593-0.441,0.986-0.441
			s0.696,0.127,0.911,0.381c0.215,0.254,0.322,0.606,0.322,1.059L37.669,58.994L37.669,58.994z M37.177,58.587
			c-0.002-0.276-0.069-0.493-0.201-0.647c-0.132-0.153-0.315-0.23-0.549-0.23c-0.227,0-0.419,0.081-0.577,0.243
			c-0.158,0.162-0.256,0.374-0.293,0.636L37.177,58.587L37.177,58.587z"/>
		<path fill="#209ED5" d="M40.886,60.374h-0.674l-1.324-1.44h-0.012v1.44h-0.48v-3h0.48v1.374h0.012l1.26-1.374h0.63l-1.392,1.446
			L40.886,60.374z"/>
		<path fill="#209ED5" d="M43.262,57.784h-0.899v2.59h-0.48v-2.59h-0.902v-0.41h2.282L43.262,57.784L43.262,57.784z"/>
		<path fill="#209ED5" d="M45.093,60.443c-0.443,0-0.797-0.139-1.062-0.42c-0.265-0.279-0.397-0.651-0.397-1.114
			c0-0.505,0.138-0.897,0.413-1.181c0.275-0.285,0.647-0.426,1.116-0.426c0.447,0,0.796,0.139,1.047,0.413
			c0.251,0.275,0.376,0.657,0.376,1.146c0,0.479-0.135,0.863-0.406,1.15C45.909,60.3,45.548,60.443,45.093,60.443z M45.128,57.708
			c-0.309,0-0.553,0.104-0.732,0.313c-0.18,0.211-0.27,0.5-0.27,0.869c0,0.355,0.091,0.637,0.272,0.842s0.425,0.308,0.729,0.308
			c0.311,0,0.549-0.101,0.716-0.302s0.25-0.487,0.25-0.858c0-0.375-0.083-0.664-0.25-0.866
			C45.676,57.811,45.438,57.708,45.128,57.708z"/>
		<path fill="#209ED5" d="M47.847,59.939h-0.012v1.813h-0.481v-4.38h0.481V57.9h0.012c0.235-0.398,0.581-0.599,1.037-0.599
			c0.386,0,0.687,0.136,0.904,0.402c0.217,0.271,0.326,0.629,0.326,1.08c0,0.502-0.123,0.903-0.367,1.205
			c-0.244,0.303-0.578,0.452-1.001,0.452C48.357,60.443,48.058,60.275,47.847,59.939z M47.835,58.73v0.418
			c0,0.248,0.08,0.459,0.241,0.631c0.161,0.175,0.365,0.261,0.614,0.261c0.29,0,0.519-0.11,0.683-0.334
			c0.166-0.224,0.248-0.532,0.248-0.929c0-0.334-0.078-0.596-0.232-0.785c-0.154-0.189-0.363-0.284-0.626-0.284
			c-0.279,0-0.504,0.099-0.674,0.291C47.919,58.193,47.835,58.438,47.835,58.73z"/>
		<path fill="#209ED5" d="M53.029,60.374h-0.48v-0.47h-0.012c-0.208,0.359-0.518,0.539-0.924,0.539c-0.299,0-0.532-0.078-0.7-0.236
			c-0.17-0.158-0.254-0.368-0.254-0.63c0-0.562,0.329-0.888,0.989-0.979l0.899-0.125c0-0.511-0.206-0.766-0.618-0.766
			c-0.361,0-0.688,0.123-0.979,0.369v-0.492c0.295-0.188,0.635-0.281,1.02-0.281c0.706,0,1.059,0.373,1.059,1.119V60.374z
			 M52.549,58.855l-0.724,0.101c-0.224,0.03-0.392,0.086-0.505,0.166c-0.112,0.078-0.17,0.219-0.17,0.42
			c0,0.146,0.054,0.267,0.156,0.358c0.105,0.094,0.244,0.14,0.418,0.14c0.238,0,0.437-0.084,0.59-0.25
			c0.156-0.168,0.233-0.379,0.233-0.636L52.549,58.855L52.549,58.855z"/>
	</g>
</g>
</svg>
