<?xml version="1.0" encoding="utf-8"?>
<!-- Generator: Adobe Illustrator 17.1.0, SVG Export Plug-In . SVG Version: 6.00 Build 0)  -->
<!DOCTYPE svg PUBLIC "-//W3C//DTD SVG 1.1//EN" "http://www.w3.org/Graphics/SVG/1.1/DTD/svg11.dtd">
<svg version="1.1" id="Слой_2" xmlns="http://www.w3.org/2000/svg" xmlns:xlink="http://www.w3.org/1999/xlink" x="0px" y="0px"
	 viewBox="0 0 992.1 340.2" enable-background="new 0 0 992.1 340.2" xml:space="preserve">
<g>
	<g>
		<path fill="#FFFFFF" d="M378.8,161.5h-8v-59.8h-35v59.8h-7.9V94.4h50.9V161.5z"/>
		<path fill="#FFFFFF" d="M464.6,161.5h-7.8v-45c0-3.6,0.2-7.9,0.7-13.1h-0.2c-0.7,3-1.4,5.2-2,6.5l-22.9,51.6h-3.8l-22.9-51.2
			c-0.7-1.5-1.3-3.8-2-6.9h-0.2c0.2,2.7,0.4,7.1,0.4,13.1v44.9h-7.6V94.4h10.4l20.6,46.8c1.6,3.6,2.6,6.3,3.1,8h0.3
			c1.3-3.7,2.4-6.4,3.2-8.2l21-46.6h9.8V161.5z"/>
		<path fill="#FFFFFF" d="M538.5,152.7v8.8h-7.3v-8.8H530c-7.5,0-13.7-2.6-18.6-7.7c-4.9-5.1-7.3-11.4-7.3-18.8
			c0-7.1,2.4-13.1,7.3-18c4.9-4.9,11.1-7.3,18.7-7.3h1.2v-8.4h7.3v8.4h1.1c7.7,0,13.9,2.4,18.7,7.2c4.8,4.8,7.2,10.8,7.2,18.1
			c0,7.4-2.4,13.6-7.3,18.8c-4.9,5.1-11.1,7.7-18.6,7.7H538.5z M531.2,145.8v-38.2h-1.2c-5.3,0-9.6,1.7-12.8,5.2
			c-3.3,3.5-4.9,8-4.9,13.5c0,5.9,1.6,10.7,4.8,14.2c3.2,3.5,7.5,5.3,12.8,5.3H531.2z M538.5,107.6v38.2h1.2c5.3,0,9.6-1.8,12.8-5.3
			c3.2-3.5,4.8-8.3,4.8-14.2c0-5.6-1.6-10.1-4.8-13.6c-3.2-3.4-7.5-5.2-12.9-5.2H538.5z"/>
		<path fill="#FFFFFF" d="M605.2,162.6c-9.5,0-17.1-3.1-22.9-9.4s-8.6-14.4-8.6-24.5c0-10.8,2.9-19.4,8.8-25.8
			c5.8-6.4,13.8-9.6,23.8-9.6c9.3,0,16.7,3.1,22.4,9.4c5.7,6.2,8.5,14.4,8.5,24.5c0,11-2.9,19.6-8.7,26
			C622.7,159.5,614.9,162.6,605.2,162.6z M605.7,100.4c-7.1,0-12.8,2.5-17.2,7.6c-4.4,5.1-6.6,11.8-6.6,20c0,8.3,2.1,14.9,6.4,20
			s9.9,7.6,16.8,7.6c7.4,0,13.2-2.4,17.4-7.2c4.2-4.8,6.4-11.5,6.4-20.2c0-8.9-2.1-15.7-6.2-20.5C618.7,102.8,613,100.4,605.7,100.4
			z"/>
		<path fill="#FFFFFF" d="M658.2,136.2v25.4h-7.9V94.4h18.4c7.2,0,12.7,1.7,16.7,5.2c3.9,3.5,5.9,8.4,5.9,14.8s-2.2,11.6-6.6,15.6
			c-4.4,4.1-10.3,6.1-17.8,6.1H658.2z M658.2,101.5V129h8.2c5.4,0,9.6-1.2,12.4-3.7c2.9-2.5,4.3-6,4.3-10.5
			c0-8.9-5.2-13.3-15.7-13.3H658.2z"/>
		<path fill="#FFFFFF" d="M749.3,158.7c-5,2.6-11.1,3.9-18.5,3.9c-9.5,0-17.2-3.1-22.9-9.2c-5.7-6.1-8.6-14.2-8.6-24.2
			c0-10.7,3.2-19.4,9.7-26c6.5-6.6,14.6-9.9,24.6-9.9c6.4,0,11.6,0.9,15.8,2.8v8.4c-4.8-2.7-10.1-4-15.9-4c-7.7,0-14,2.6-18.7,7.7
			c-4.8,5.1-7.2,12-7.2,20.6c0,8.2,2.2,14.7,6.7,19.5c4.5,4.9,10.3,7.3,17.6,7.3c6.7,0,12.6-1.5,17.5-4.5V158.7z"/>
		<path fill="#FFFFFF" d="M814.9,161.5h-8.7l-7.1-18.8h-28.5l-6.7,18.8h-8.8l25.7-67.1h8.1L814.9,161.5z M796.5,135.6L785.9,107
			c-0.3-0.9-0.7-2.4-1-4.5h-0.2c-0.3,1.9-0.7,3.4-1.1,4.5l-10.4,28.6H796.5z"/>
		<path fill="#FFFFFF" d="M878.8,161.5H871V113c0-4.4,0.2-7.4,0.5-9.2h-0.3c-0.6,1.5-1.3,2.9-2.2,4.2l-34.5,53.5h-9.7V94.4h7.9v47.3
			c0,5.1-0.1,8.3-0.4,9.9h0.2c0.7-1.4,1.6-2.9,2.6-4.5l33.7-52.6h10.1V161.5z M868.9,74c-0.5,4.4-2.2,7.9-5.3,10.4
			c-3.1,2.5-6.9,3.8-11.5,3.8c-4.7,0-8.6-1.3-11.6-3.8c-3-2.5-4.6-6-4.9-10.4h7.6c0.4,5.9,3.4,8.8,9,8.8c2.5,0,4.6-0.8,6.2-2.3
			c1.6-1.5,2.6-3.7,3-6.5H868.9z"/>
		<path fill="#FFFFFF" d="M936.2,101.5h-19.4v60H909v-60h-19.3v-7.1h46.6V101.5z"/>
	</g>
</g>
<g>
	<g>
		<path fill="#FFFFFF" d="M343.6,214.3c-1.6,1-3.5,1.4-5.7,1.4c-3,0-5.4-1-7.2-2.9s-2.7-4.4-2.7-7.5c0-3.4,1-6.2,3-8.3
			c2-2.1,4.6-3.1,7.9-3.1c1.8,0,3.4,0.3,4.8,1v3.4c-1.5-1.1-3.2-1.6-5-1.6c-2.1,0-3.9,0.8-5.2,2.3c-1.4,1.5-2,3.5-2,6
			c0,2.4,0.6,4.4,1.9,5.8c1.3,1.4,3,2.1,5.2,2.1c1.8,0,3.5-0.6,5.1-1.8V214.3z"/>
		<path fill="#FFFFFF" d="M366.1,215.2h-3v-16.6c-0.3,0.6-0.8,1.4-1.4,2.5l-9.6,14.2h-3.5v-20.8h3.1v16.4c0.2-0.4,0.5-1.1,1.1-2
			l9.9-14.4h3.5V215.2z"/>
		<path fill="#FFFFFF" d="M387.1,214.3c-1.6,1-3.5,1.4-5.7,1.4c-3,0-5.4-1-7.2-2.9s-2.7-4.4-2.7-7.5c0-3.4,1-6.2,3-8.3
			c2-2.1,4.6-3.1,7.9-3.1c1.8,0,3.4,0.3,4.8,1v3.4c-1.5-1.1-3.2-1.6-5-1.6c-2.1,0-3.9,0.8-5.2,2.3c-1.4,1.5-2,3.5-2,6
			c0,2.4,0.6,4.4,1.9,5.8c1.3,1.4,3,2.1,5.2,2.1c1.8,0,3.5-0.6,5.1-1.8V214.3z"/>
		<path fill="#FFFFFF" d="M405.2,197.2H399v18h-3.3v-18h-6.3v-2.8h15.8V197.2z"/>
		<path fill="#FFFFFF" d="M425.2,205.6h-14.7c0.1,2.3,0.7,4.1,1.9,5.4c1.2,1.3,2.8,1.9,4.9,1.9c2.3,0,4.5-0.8,6.5-2.3v3.1
			c-1.8,1.3-4.3,2-7.3,2c-2.9,0-5.3-0.9-6.9-2.8c-1.7-1.9-2.5-4.6-2.5-8c0-3.2,0.9-5.9,2.8-7.9c1.8-2,4.1-3.1,6.8-3.1
			c2.7,0,4.8,0.9,6.3,2.6c1.5,1.8,2.2,4.2,2.2,7.3V205.6z M421.8,202.8c0-1.9-0.5-3.4-1.4-4.5c-0.9-1.1-2.2-1.6-3.8-1.6
			c-1.6,0-2.9,0.6-4,1.7c-1.1,1.1-1.8,2.6-2,4.4H421.8z"/>
		<path fill="#FFFFFF" d="M452.7,215.2h-3.3v-17.2c-0.3,0.9-0.8,2.1-1.4,3.8l-5.2,13.3h-3l-5.4-13.3c-0.3-0.7-0.7-2-1.4-3.8v17.2
			h-2.9v-20.8h4.3L440,208c0.4,1,0.9,2.4,1.5,4.1l1.5-4l5.3-13.7h4.4V215.2z"/>
		<path fill="#FFFFFF" d="M474.4,215.2h-3.3V212H471c-1.5,2.5-3.6,3.7-6.4,3.7c-2.1,0-3.7-0.5-4.9-1.6c-1.2-1.1-1.8-2.6-1.8-4.4
			c0-3.9,2.3-6.2,6.9-6.8l6.2-0.9c0-3.5-1.4-5.3-4.3-5.3c-2.5,0-4.8,0.9-6.8,2.6v-3.4c2-1.3,4.4-2,7.1-2c4.9,0,7.3,2.6,7.3,7.8
			V215.2z M471.1,204.7l-5,0.7c-1.5,0.2-2.7,0.6-3.5,1.1c-0.8,0.5-1.2,1.5-1.2,2.9c0,1,0.4,1.8,1.1,2.5c0.7,0.6,1.7,1,2.9,1
			c1.7,0,3-0.6,4.1-1.7c1.1-1.2,1.6-2.6,1.6-4.4V204.7z"/>
		<path fill="#FFFFFF" d="M508.7,194.4l-9.6,24.2c-1.7,4.3-4.1,6.5-7.2,6.5c-0.9,0-1.6-0.1-2.2-0.3v-3c0.7,0.2,1.4,0.4,2,0.4
			c1.7,0,2.9-1,3.8-3l1.7-3.9l-8.1-20.8h3.7l5.6,16c0.1,0.2,0.2,0.7,0.4,1.6h0.1c0.1-0.3,0.2-0.8,0.4-1.5l5.9-16.1H508.7z"/>
		<path fill="#FFFFFF" d="M529.6,215.2h-3.3v-18h-10.6v18h-3.3v-20.8h17.3V215.2z"/>
		<path fill="#FFFFFF" d="M539.7,212.2L539.7,212.2l-0.1,12.6h-3.3v-30.4h3.3v3.7h0.1c1.6-2.8,4-4.1,7.2-4.1c2.7,0,4.8,0.9,6.3,2.8
			c1.5,1.9,2.3,4.4,2.3,7.5c0,3.5-0.8,6.3-2.5,8.4c-1.7,2.1-4,3.1-7,3.1C543.3,215.7,541.2,214.6,539.7,212.2z M539.7,203.8v2.9
			c0,1.7,0.6,3.2,1.7,4.4c1.1,1.2,2.5,1.8,4.3,1.8c2,0,3.6-0.8,4.8-2.3s1.7-3.7,1.7-6.4c0-2.3-0.5-4.1-1.6-5.5c-1.1-1.3-2.5-2-4.4-2
			c-1.9,0-3.5,0.7-4.7,2S539.7,201.8,539.7,203.8z"/>
		<path fill="#FFFFFF" d="M575.2,215.2h-3.3V212h-0.1c-1.5,2.5-3.6,3.7-6.4,3.7c-2.1,0-3.7-0.5-4.9-1.6c-1.2-1.1-1.8-2.6-1.8-4.4
			c0-3.9,2.3-6.2,6.9-6.8l6.2-0.9c0-3.5-1.4-5.3-4.3-5.3c-2.5,0-4.8,0.9-6.8,2.6v-3.4c2-1.3,4.4-2,7.1-2c4.9,0,7.3,2.6,7.3,7.8
			V215.2z M571.8,204.7l-5,0.7c-1.5,0.2-2.7,0.6-3.5,1.1c-0.8,0.5-1.2,1.5-1.2,2.9c0,1,0.4,1.8,1.1,2.5c0.7,0.6,1.7,1,2.9,1
			c1.7,0,3-0.6,4.1-1.7c1.1-1.2,1.6-2.6,1.6-4.4V204.7z"/>
		<path fill="#FFFFFF" d="M581.5,215.2v-20.8h9.1c2,0,3.7,0.5,4.9,1.4c1.2,0.9,1.8,2.2,1.8,3.7c0,2.7-1.3,4.3-4,4.9
			c3.2,0.4,4.8,2,4.8,4.8c0,1.7-0.7,3.1-2,4.3c-1.3,1.2-2.9,1.7-4.9,1.7H581.5z M584.8,197.2v5.9h5c2.7,0,4-1,4-3.1
			c0-1.8-1.2-2.7-3.6-2.7H584.8z M584.8,206v6.4h5.8c2.7,0,4-1.1,4-3.3c0-2.1-1.5-3.2-4.5-3.2H584.8z"/>
		<path fill="#FFFFFF" d="M618.7,215.2h-3.3v-18h-4.8c-0.6,6.7-1.5,11.5-2.9,14.2c-1.3,2.7-3.2,4.1-5.4,4.1c-0.7,0-1.3-0.1-1.8-0.3
			v-2.9c0.5,0.2,1,0.4,1.5,0.4c3,0,4.9-6.1,5.8-18.3h10.9V215.2z"/>
		<path fill="#FFFFFF" d="M642.2,205.6h-14.7c0.1,2.3,0.7,4.1,1.9,5.4c1.2,1.3,2.8,1.9,4.9,1.9c2.3,0,4.5-0.8,6.5-2.3v3.1
			c-1.8,1.3-4.3,2-7.3,2c-2.9,0-5.3-0.9-6.9-2.8c-1.7-1.9-2.5-4.6-2.5-8c0-3.2,0.9-5.9,2.8-7.9c1.8-2,4.1-3.1,6.8-3.1
			c2.7,0,4.8,0.9,6.3,2.6c1.5,1.8,2.2,4.2,2.2,7.3V205.6z M638.8,202.8c0-1.9-0.5-3.4-1.4-4.5c-0.9-1.1-2.2-1.6-3.8-1.6
			c-1.6,0-2.9,0.6-4,1.7c-1.1,1.1-1.8,2.6-2,4.4H638.8z"/>
		<path fill="#FFFFFF" d="M664.6,215.2h-3.3v-9.5h-10.6v9.5h-3.3v-20.8h3.3v8.5h10.6v-8.5h3.3V215.2z"/>
		<path fill="#FFFFFF" d="M688.8,215.2h-3v-16.6c-0.3,0.6-0.8,1.4-1.4,2.5l-9.6,14.2h-3.5v-20.8h3.1v16.4c0.2-0.4,0.5-1.1,1.1-2
			l9.9-14.4h3.5V215.2z"/>
		<path fill="#FFFFFF" d="M709.8,215.2h-3.3v-8.6h-2.8c-1.3,0-2.6,1.1-3.7,3.3l-2.7,5.4h-3.9l3.5-6.4c0.8-1.5,1.8-2.5,3-3
			c-1.6-0.2-2.9-0.8-3.7-1.8s-1.3-2.2-1.3-3.7c0-1.8,0.7-3.3,2-4.4s3.2-1.6,5.6-1.6h7.3V215.2z M706.4,203.8v-6.6h-3.9
			c-2.8,0-4.2,1.1-4.2,3.2c0,2.3,1.4,3.4,4.1,3.4H706.4z"/>
		<path fill="#FFFFFF" d="M745.2,215.2h-3.3v-18h-10.6v18h-3.3v-20.8h17.3V215.2z"/>
		<path fill="#FFFFFF" d="M755.4,212.2L755.4,212.2l-0.1,12.6h-3.3v-30.4h3.3v3.7h0.1c1.6-2.8,4-4.1,7.2-4.1c2.7,0,4.8,0.9,6.3,2.8
			c1.5,1.9,2.3,4.4,2.3,7.5c0,3.5-0.8,6.3-2.5,8.4c-1.7,2.1-4,3.1-7,3.1C758.9,215.7,756.8,214.6,755.4,212.2z M755.3,203.8v2.9
			c0,1.7,0.6,3.2,1.7,4.4c1.1,1.2,2.5,1.8,4.3,1.8c2,0,3.6-0.8,4.8-2.3s1.7-3.7,1.7-6.4c0-2.3-0.5-4.1-1.6-5.5c-1.1-1.3-2.5-2-4.4-2
			c-1.9,0-3.5,0.7-4.7,2S755.3,201.8,755.3,203.8z"/>
		<path fill="#FFFFFF" d="M785.1,215.7c-3.1,0-5.5-1-7.4-2.9c-1.8-1.9-2.8-4.5-2.8-7.7c0-3.5,1-6.2,2.9-8.2c1.9-2,4.5-2.9,7.8-2.9
			c3.1,0,5.5,1,7.3,2.9s2.6,4.6,2.6,8c0,3.3-0.9,6-2.8,8C790.8,214.7,788.3,215.7,785.1,215.7z M785.4,196.7c-2.1,0-3.8,0.7-5.1,2.2
			s-1.9,3.5-1.9,6c0,2.5,0.6,4.4,1.9,5.8c1.3,1.4,3,2.1,5.1,2.1c2.2,0,3.8-0.7,5-2.1c1.2-1.4,1.7-3.4,1.7-6c0-2.6-0.6-4.6-1.7-6
			C789.2,197.4,787.5,196.7,785.4,196.7z"/>
		<path fill="#FFFFFF" d="M817.6,205.6h-14.7c0.1,2.3,0.7,4.1,1.9,5.4c1.2,1.3,2.8,1.9,4.9,1.9c2.3,0,4.5-0.8,6.5-2.3v3.1
			c-1.8,1.3-4.3,2-7.3,2c-2.9,0-5.3-0.9-6.9-2.8c-1.7-1.9-2.5-4.6-2.5-8c0-3.2,0.9-5.9,2.8-7.9c1.8-2,4.1-3.1,6.8-3.1
			c2.7,0,4.8,0.9,6.3,2.6c1.5,1.8,2.2,4.2,2.2,7.3V205.6z M814.2,202.8c0-1.9-0.5-3.4-1.4-4.5c-0.9-1.1-2.2-1.6-3.8-1.6
			c-1.6,0-2.9,0.6-4,1.7c-1.1,1.1-1.8,2.6-2,4.4H814.2z"/>
		<path fill="#FFFFFF" d="M839.9,215.2h-4.7l-9.2-10H826v10h-3.3v-20.8h3.3v9.5h0.1l8.7-9.5h4.4l-9.7,10L839.9,215.2z"/>
		<path fill="#FFFFFF" d="M856.4,197.2h-6.2v18h-3.3v-18h-6.3v-2.8h15.8V197.2z"/>
		<path fill="#FFFFFF" d="M875.4,215.2H872V212h-0.1c-1.5,2.5-3.6,3.7-6.4,3.7c-2.1,0-3.7-0.5-4.9-1.6c-1.2-1.1-1.8-2.6-1.8-4.4
			c0-3.9,2.3-6.2,6.9-6.8l6.2-0.9c0-3.5-1.4-5.3-4.3-5.3c-2.5,0-4.8,0.9-6.8,2.6v-3.4c2-1.3,4.4-2,7.1-2c4.9,0,7.3,2.6,7.3,7.8
			V215.2z M872,204.7l-5,0.7c-1.5,0.2-2.7,0.6-3.5,1.1c-0.8,0.5-1.2,1.5-1.2,2.9c0,1,0.4,1.8,1.1,2.5c0.7,0.6,1.7,1,2.9,1
			c1.7,0,3-0.6,4.1-1.7c1.1-1.2,1.6-2.6,1.6-4.4V204.7z"/>
		<path fill="#FFFFFF" d="M904.1,215.2h-3.3v-17.2c-0.3,0.9-0.8,2.1-1.4,3.8l-5.2,13.3h-3l-5.4-13.3c-0.3-0.7-0.7-2-1.4-3.8v17.2
			h-2.9v-20.8h4.3l5.5,13.6c0.4,1,0.9,2.4,1.5,4.1l1.5-4l5.3-13.7h4.4V215.2z"/>
		<path fill="#FFFFFF" d="M928.4,215.2h-3v-16.6c-0.3,0.6-0.8,1.4-1.4,2.5l-9.6,14.2h-3.5v-20.8h3.1v16.4c0.2-0.4,0.5-1.1,1.1-2
			l9.9-14.4h3.5V215.2z"/>
	</g>
</g>
<g>
	<g>
		<g>
			<path fill="#FFFFFF" d="M186.1,56.8c1.8,0,3.6,0.2,5.3,0.6l39.7,8.5c2.8,0.6,4.2,3.7,2.9,6.2l-39.8,74.4c-1,1.8-2.9,3-5,3
				l-50.5,0c-2.1,0-4-1.1-5-2.9l-38-69.2c-1.4-2.6,0.1-5.8,3-6.2l81.9-13.9C182.5,56.9,184.3,56.8,186.1,56.8z"/>
		</g>
		<g>
			<path fill="#FFFFFF" d="M160.6,195.4c1.6,3,5.9,2.9,7.5,0l14.3-26.7c1.5-2.8-0.5-6.3-3.7-6.3l-28.9,0c-3.2,0-5.3,3.5-3.7,6.3
				L160.6,195.4z"/>
		</g>
		<g>
			<path fill="#FFFFFF" d="M57.8,217.5c-0.8-1.6-1.3-3.4-1.3-5.3V86.6c0-4.8,3.5-9,8.6-9.8l1.7-0.3c4.2-0.7,8.4,1.3,10.4,5.1
				l82.7,155c1.7,3.2,5.1,5.3,8.8,5.3h17.1c3.7,0,7-2,8.8-5.3l79.9-150.2c2-3.8,6.2-5.8,10.4-4.9l0.1,0c4.4,0.9,7.5,4.8,7.5,9.3
				v127.3c0,2.1-0.6,4.2-1.7,5.9l0,0c-1,1.7-2.5,3.1-4.4,4.1l-114.6,60.5c-3.7,2-8.2,1.7-11.6-0.6l-98.7-66.5
				C60,220.5,58.7,219.1,57.8,217.5z"/>
		</g>
	</g>
</g>
</svg>
