<?xml version="1.0" encoding="utf-8"?>
<!-- Generator: Adobe Illustrator 15.0.0, SVG Export Plug-In . SVG Version: 6.00 Build 0)  -->
<!DOCTYPE svg PUBLIC "-//W3C//DTD SVG 1.1//EN" "http://www.w3.org/Graphics/SVG/1.1/DTD/svg11.dtd">
<svg version="1.1" id="Слой_2" xmlns="http://www.w3.org/2000/svg" xmlns:xlink="http://www.w3.org/1999/xlink" x="0px" y="0px"
	 width="100px" height="100px" viewBox="0 0 100 100" enable-background="new 0 0 100 100" xml:space="preserve">
<g display="none">
	<g display="inline">
		<path fill="#333333" d="M40.962,49.249h-0.769v-5.772h-3.388v5.772h-0.76V42.77h4.917V49.249z"/>
		<path fill="#333333" d="M49.249,49.249h-0.751V44.9c0-0.34,0.018-0.76,0.061-1.257h-0.017c-0.07,0.288-0.14,0.498-0.192,0.628
			l-2.218,4.978h-0.367l-2.209-4.942c-0.061-0.148-0.131-0.367-0.192-0.664h-0.018c0.026,0.262,0.035,0.681,0.035,1.266v4.34h-0.733
			V42.77h1.004l1.991,4.523c0.157,0.35,0.253,0.603,0.297,0.777h0.026c0.131-0.358,0.236-0.62,0.314-0.795l2.026-4.505h0.943V49.249
			z"/>
		<path fill="#333333" d="M56.393,48.402v0.847h-0.708v-0.847h-0.122c-0.725,0-1.318-0.244-1.79-0.742
			c-0.472-0.498-0.708-1.1-0.708-1.816c0-0.69,0.236-1.267,0.708-1.738c0.472-0.472,1.073-0.708,1.808-0.708h0.113v-0.812H56.4
			v0.812h0.105c0.742,0,1.344,0.227,1.807,0.69s0.699,1.048,0.699,1.747c0,0.707-0.236,1.318-0.707,1.816
			c-0.473,0.498-1.066,0.742-1.791,0.742h-0.121V48.402z M55.685,47.729v-3.693h-0.113c-0.516,0-0.926,0.166-1.24,0.506
			c-0.314,0.34-0.472,0.777-0.472,1.31c0,0.577,0.157,1.031,0.463,1.371c0.314,0.341,0.725,0.506,1.24,0.506H55.685z M56.393,44.036
			v3.693h0.113c0.515,0,0.926-0.174,1.24-0.515c0.313-0.34,0.462-0.794,0.462-1.371c0-0.542-0.157-0.978-0.462-1.31
			c-0.314-0.332-0.726-0.498-1.25-0.498H56.393z"/>
		<path fill="#333333" d="M62.828,49.362c-0.918,0-1.66-0.305-2.21-0.908s-0.829-1.397-0.829-2.367c0-1.039,0.279-1.877,0.847-2.497
			c0.567-0.62,1.327-0.935,2.296-0.935c0.891,0,1.616,0.306,2.166,0.908c0.551,0.603,0.82,1.388,0.82,2.366
			c0,1.057-0.279,1.895-0.838,2.506S63.771,49.362,62.828,49.362z M62.88,43.346c-0.681,0-1.231,0.245-1.659,0.733
			c-0.428,0.489-0.637,1.135-0.637,1.938c0,0.795,0.209,1.441,0.619,1.93c0.41,0.489,0.952,0.734,1.625,0.734
			c0.707,0,1.274-0.236,1.685-0.699c0.411-0.463,0.611-1.109,0.611-1.947c0-0.856-0.2-1.52-0.594-1.982
			C64.129,43.582,63.587,43.346,62.88,43.346z"/>
		<path fill="#333333" d="M67.953,46.804v2.454h-0.76V42.77h1.781c0.689,0,1.231,0.166,1.615,0.506
			c0.385,0.34,0.568,0.812,0.568,1.432c0,0.62-0.21,1.118-0.638,1.51c-0.419,0.393-0.995,0.585-1.712,0.585H67.953z M67.953,43.459
			v2.655h0.795c0.523,0,0.926-0.122,1.196-0.358c0.279-0.236,0.41-0.577,0.41-1.013c0-0.855-0.507-1.284-1.52-1.284H67.953z"/>
		<path fill="#333333" d="M76.746,48.979c-0.48,0.253-1.074,0.375-1.789,0.375c-0.926,0-1.66-0.297-2.219-0.891
			c-0.55-0.594-0.83-1.371-0.83-2.34c0-1.039,0.314-1.877,0.936-2.515c0.619-0.637,1.414-0.96,2.375-0.96
			c0.611,0,1.126,0.087,1.527,0.271v0.812c-0.463-0.262-0.978-0.393-1.537-0.393c-0.742,0-1.344,0.245-1.807,0.742
			s-0.689,1.162-0.689,1.991c0,0.786,0.218,1.415,0.646,1.886c0.437,0.472,0.995,0.699,1.702,0.699c0.655,0,1.215-0.148,1.695-0.437
			v0.76H76.746z"/>
		<path fill="#333333" d="M83.086,49.249h-0.838l-0.69-1.816h-2.751l-0.646,1.816h-0.847l2.488-6.479h0.785L83.086,49.249z
			 M81.305,46.751l-1.014-2.759c-0.034-0.087-0.069-0.236-0.096-0.437h-0.018c-0.025,0.184-0.061,0.332-0.104,0.437l-1.004,2.759
			H81.305z"/>
		<path fill="#333333" d="M89.26,49.249H88.5v-4.68c0-0.419,0.018-0.716,0.043-0.891h-0.025c-0.062,0.148-0.123,0.28-0.21,0.411
			l-3.335,5.169h-0.943V42.77h0.76v4.567c0,0.489-0.01,0.803-0.035,0.952h0.018c0.07-0.131,0.148-0.279,0.253-0.437l3.257-5.082
			h0.979V49.249z M88.299,40.796c-0.043,0.428-0.219,0.76-0.516,1.004c-0.297,0.244-0.672,0.367-1.117,0.367
			c-0.454,0-0.83-0.123-1.117-0.367c-0.289-0.245-0.445-0.585-0.473-1.004h0.734c0.043,0.567,0.332,0.847,0.864,0.847
			c0.245,0,0.437-0.079,0.594-0.227s0.253-0.358,0.288-0.629h0.742V40.796z"/>
		<path fill="#333333" d="M94.805,43.459h-1.869v5.798h-0.76v-5.798h-1.868V42.77h4.497V43.459z"/>
	</g>
</g>
<g display="none">
	<g display="inline">
		<path fill="#333333" d="M39.801,59.789h-0.419v-1.127h-2.305v1.127h-0.428v-1.555h0.28c0.533-0.76,0.794-1.659,0.803-2.681h1.606
			v2.681h0.463V59.789L39.801,59.789z M38.84,58.234v-2.262h-0.69c-0.052,0.838-0.288,1.59-0.707,2.262H38.84z"/>
		<path fill="#333333" d="M42.805,58.653h-0.498v-2.681h-0.725c-0.078,1.004-0.227,1.711-0.428,2.113
			c-0.201,0.402-0.472,0.611-0.812,0.611c-0.105,0-0.192-0.018-0.271-0.044v-0.428c0.07,0.035,0.148,0.052,0.227,0.052
			c0.445,0,0.733-0.907,0.855-2.724h1.633v3.1H42.805z"/>
		<path fill="#333333" d="M45.931,58.653h-0.498V57.37h-0.411c-0.201,0-0.384,0.157-0.541,0.479l-0.402,0.804h-0.576l0.524-0.96
			c0.122-0.219,0.271-0.367,0.437-0.438c-0.245-0.034-0.428-0.121-0.55-0.27c-0.122-0.148-0.192-0.324-0.192-0.542
			c0-0.271,0.096-0.489,0.297-0.655c0.201-0.156,0.48-0.244,0.838-0.244h1.074V58.653z M45.433,56.959v-0.978h-0.585
			c-0.419,0-0.629,0.157-0.629,0.472c0,0.332,0.201,0.506,0.611,0.506H45.433z"/>
		<path fill="#333333" d="M50.349,55.981h-1.222v2.672h-0.498v-3.1h1.72V55.981z"/>
		<path fill="#333333" d="M52.184,58.732c-0.455,0-0.821-0.148-1.101-0.438c-0.28-0.287-0.411-0.672-0.411-1.152
			c0-0.523,0.141-0.926,0.428-1.223c0.289-0.297,0.673-0.436,1.153-0.436c0.463,0,0.821,0.139,1.083,0.428
			c0.262,0.287,0.393,0.681,0.393,1.188c0,0.497-0.14,0.891-0.419,1.188S52.654,58.732,52.184,58.732z M52.218,55.902
			c-0.323,0-0.567,0.105-0.759,0.324c-0.184,0.218-0.28,0.515-0.28,0.898c0,0.367,0.097,0.655,0.28,0.873
			c0.183,0.21,0.436,0.314,0.75,0.314c0.323,0,0.568-0.104,0.742-0.314c0.175-0.209,0.262-0.506,0.262-0.891
			c0-0.384-0.087-0.689-0.262-0.898C52.785,56.008,52.541,55.902,52.218,55.902z"/>
		<path fill="#333333" d="M56.637,58.514c-0.236,0.14-0.524,0.219-0.848,0.219c-0.445,0-0.795-0.141-1.074-0.428
			c-0.27-0.289-0.41-0.664-0.41-1.118c0-0.507,0.148-0.917,0.438-1.231c0.297-0.306,0.681-0.463,1.17-0.463
			c0.27,0,0.515,0.053,0.725,0.148v0.507c-0.228-0.157-0.48-0.245-0.742-0.245c-0.314,0-0.576,0.114-0.777,0.342
			c-0.201,0.227-0.306,0.523-0.306,0.891c0,0.366,0.096,0.646,0.288,0.855c0.191,0.209,0.445,0.314,0.769,0.314
			c0.271,0,0.524-0.088,0.759-0.271v0.48H56.637z"/>
		<path fill="#333333" d="M59.85,55.554l-1.424,3.598c-0.252,0.638-0.61,0.96-1.073,0.96c-0.131,0-0.235-0.018-0.323-0.043v-0.445
			c0.105,0.035,0.201,0.053,0.297,0.053c0.254,0,0.437-0.148,0.559-0.445l0.244-0.586l-1.213-3.091h0.55l0.839,2.384
			c0.008,0.026,0.035,0.105,0.061,0.236h0.018c0.009-0.053,0.026-0.123,0.061-0.228l0.883-2.393H59.85z"/>
		<path fill="#333333" d="M62.88,58.653h-0.497v-1.249c-0.367,0.201-0.699,0.297-1.005,0.297c-0.698,0-1.039-0.366-1.039-1.1v-1.048
			h0.497v1.021c0,0.454,0.193,0.681,0.586,0.681c0.297,0,0.619-0.087,0.961-0.262v-1.44h0.497V58.653z"/>
		<path fill="#333333" d="M64.399,58.208h-0.009v1.878h-0.498v-4.523h0.498v0.541h0.009c0.244-0.41,0.603-0.619,1.073-0.619
			c0.402,0,0.708,0.139,0.936,0.418c0.227,0.279,0.331,0.646,0.331,1.118c0,0.515-0.122,0.935-0.376,1.249
			c-0.252,0.314-0.594,0.471-1.039,0.471C64.924,58.732,64.617,58.558,64.399,58.208z M64.382,56.959v0.438
			c0,0.253,0.087,0.471,0.253,0.654c0.166,0.175,0.375,0.271,0.638,0.271c0.297,0,0.532-0.114,0.708-0.35
			c0.174-0.236,0.252-0.551,0.252-0.961c0-0.35-0.078-0.611-0.235-0.813c-0.157-0.191-0.376-0.297-0.646-0.297
			c-0.289,0-0.524,0.105-0.699,0.297C64.469,56.4,64.382,56.654,64.382,56.959z"/>
		<path fill="#333333" d="M70.022,57.23h-2.191c0.009,0.35,0.104,0.611,0.279,0.803c0.175,0.184,0.419,0.279,0.733,0.279
			c0.35,0,0.672-0.113,0.961-0.349v0.462c-0.271,0.201-0.629,0.297-1.083,0.297c-0.437,0-0.786-0.139-1.03-0.418
			c-0.254-0.279-0.375-0.682-0.375-1.188c0-0.48,0.139-0.873,0.41-1.18c0.271-0.305,0.611-0.453,1.021-0.453
			s0.716,0.131,0.943,0.393c0.218,0.262,0.332,0.629,0.332,1.092L70.022,57.23L70.022,57.23z M69.516,56.811
			c0-0.287-0.069-0.506-0.209-0.672c-0.14-0.157-0.323-0.236-0.567-0.236c-0.235,0-0.437,0.088-0.594,0.254
			c-0.166,0.166-0.263,0.385-0.306,0.654H69.516z"/>
		<path fill="#333333" d="M74.895,58.653h-0.672l-1.389-1.528h-0.008v1.528h-0.473v-1.528h-0.008l-1.389,1.528h-0.664l1.537-1.598
			l-1.449-1.502h0.629l1.327,1.449h0.009v-1.449h0.471v1.449h0.01l1.326-1.449h0.639l-1.441,1.502L74.895,58.653z"/>
		<path fill="#333333" d="M78.23,59.789h-0.428v-1.127h-2.305v1.127H75.07v-1.555h0.279c0.532-0.76,0.795-1.659,0.803-2.681h1.607
			v2.681h0.463v1.555H78.23z M77.271,58.234v-2.262h-0.69c-0.052,0.838-0.287,1.59-0.707,2.262H77.271z"/>
		<path fill="#333333" d="M81.409,57.23h-2.191c0.009,0.35,0.104,0.611,0.279,0.803c0.175,0.184,0.419,0.279,0.733,0.279
			c0.35,0,0.672-0.113,0.961-0.349v0.462c-0.271,0.201-0.629,0.297-1.083,0.297c-0.437,0-0.786-0.139-1.03-0.418
			c-0.254-0.279-0.375-0.682-0.375-1.188c0-0.48,0.139-0.873,0.41-1.18c0.27-0.305,0.611-0.453,1.021-0.453s0.716,0.131,0.943,0.393
			c0.218,0.262,0.331,0.629,0.331,1.092V57.23L81.409,57.23z M80.895,56.811c0-0.287-0.07-0.506-0.21-0.672
			c-0.14-0.157-0.323-0.236-0.567-0.236c-0.236,0-0.438,0.088-0.594,0.254c-0.166,0.166-0.262,0.385-0.306,0.654H80.895z"/>
		<path fill="#333333" d="M84.728,58.653H84.23v-1.405h-1.581v1.405h-0.498v-3.1h0.498v1.274h1.581v-1.274h0.497V58.653z"/>
		<path fill="#333333" d="M88.334,58.653h-0.445v-2.472c-0.044,0.088-0.113,0.211-0.201,0.367l-1.432,2.104H85.74v-3.1h0.454v2.444
			c0.026-0.061,0.079-0.156,0.157-0.297l1.467-2.139h0.516V58.653z"/>
		<path fill="#333333" d="M91.932,58.653h-0.445v-2.472c-0.044,0.088-0.113,0.211-0.201,0.367l-1.432,2.104h-0.516v-3.1h0.454v2.444
			c0.026-0.061,0.079-0.156,0.157-0.297l1.467-2.139h0.516V58.653z M91.757,54.052c-0.026,0.288-0.148,0.507-0.341,0.673
			c-0.201,0.166-0.445,0.244-0.742,0.244c-0.305,0-0.559-0.078-0.75-0.244c-0.193-0.166-0.297-0.394-0.314-0.673h0.488
			c0.026,0.376,0.219,0.567,0.585,0.567c0.157,0,0.298-0.053,0.401-0.148c0.105-0.096,0.166-0.236,0.193-0.419H91.757z"/>
	</g>
</g>
<g display="none">
	<g display="inline">
		<g>
			<path fill="#333333" d="M16.25,40.106c0.157,0,0.314,0.018,0.463,0.053l3.466,0.742c0.245,0.052,0.367,0.323,0.253,0.541
				l-3.476,6.497c-0.087,0.157-0.253,0.262-0.437,0.262h-4.41c-0.183,0-0.349-0.096-0.437-0.253l-3.318-6.042
				c-0.122-0.227,0.009-0.506,0.262-0.542l7.151-1.213C15.936,40.115,16.093,40.106,16.25,40.106z"/>
		</g>
		<g>
			<path fill="#333333" d="M14.024,52.209c0.14,0.262,0.515,0.254,0.655,0l1.249-2.331c0.131-0.245-0.043-0.55-0.323-0.55h-2.524
				c-0.279,0-0.463,0.306-0.323,0.55L14.024,52.209z"/>
		</g>
		<g>
			<path fill="#333333" d="M5.047,54.139C4.978,54,4.934,53.842,4.934,53.676V42.708c0-0.419,0.306-0.786,0.751-0.855l0.148-0.026
				c0.367-0.061,0.733,0.114,0.908,0.445l7.221,13.535c0.148,0.279,0.446,0.463,0.769,0.463h1.493c0.323,0,0.611-0.174,0.769-0.463
				l6.977-13.115c0.174-0.332,0.542-0.507,0.908-0.428h0.009c0.384,0.079,0.655,0.419,0.655,0.812v11.116
				c0,0.184-0.053,0.367-0.148,0.516l0,0c-0.087,0.148-0.218,0.271-0.384,0.357l-10.007,5.283c-0.323,0.174-0.716,0.148-1.013-0.053
				L5.37,54.488C5.239,54.4,5.126,54.279,5.047,54.139z"/>
		</g>
	</g>
</g>
<g>
	<g>
		<g>
			<path fill="#FFFFFF" d="M16.216,40.106c0.152,0,0.305,0,0.458,0.051l3.456,0.763c0.254,0.05,0.356,0.305,0.254,0.559
				l-3.456,6.505c-0.102,0.153-0.254,0.254-0.458,0.254h-4.421c-0.203,0-0.355-0.102-0.457-0.254l-3.303-6.048
				c-0.102-0.203,0-0.508,0.253-0.559l7.167-1.22C15.912,40.106,16.064,40.106,16.216,40.106z"/>
		</g>
		<g>
			<path fill="#FFFFFF" d="M14.03,52.203c0.153,0.252,0.509,0.252,0.662,0l1.27-2.338c0.153-0.254-0.05-0.559-0.305-0.559h-2.541
				c-0.254,0-0.458,0.305-0.305,0.559L14.03,52.203z"/>
		</g>
		<g>
			<path fill="#FFFFFF" d="M5.035,54.132c-0.05-0.152-0.101-0.304-0.101-0.457V42.698c0-0.406,0.305-0.762,0.763-0.863l0.152-0.051
				c0.355-0.051,0.711,0.102,0.915,0.458L13.98,55.76c0.152,0.255,0.457,0.457,0.762,0.457h1.474c0.305,0,0.61-0.153,0.762-0.457
				l6.962-13.112c0.152-0.356,0.559-0.508,0.915-0.407l0,0c0.407,0.102,0.662,0.407,0.662,0.813v11.077
				c0,0.205-0.052,0.357-0.153,0.51l0,0c-0.102,0.153-0.204,0.253-0.407,0.355l-9.961,5.336c-0.305,0.152-0.712,0.152-1.017-0.05
				l-8.589-5.794C5.239,54.388,5.137,54.235,5.035,54.132z"/>
		</g>
	</g>
</g>
<g>
	<path fill="#FFFFFF" d="M37.418,47.246h-0.846v-6.364h-3.73v6.364H32v-7.141h5.418V47.246z"/>
	<path fill="#FFFFFF" d="M46.551,47.246h-0.832v-4.791c0-0.378,0.024-0.842,0.07-1.389h-0.02c-0.08,0.322-0.151,0.553-0.214,0.691
		l-2.44,5.488h-0.408l-2.435-5.448c-0.07-0.159-0.142-0.402-0.215-0.731h-0.02c0.027,0.285,0.041,0.753,0.041,1.398v4.781h-0.807
		v-7.141h1.105l2.191,4.98c0.17,0.382,0.28,0.667,0.329,0.856h0.031c0.142-0.392,0.256-0.684,0.343-0.877l2.235-4.959h1.046V47.246z
		"/>
	<path fill="#FFFFFF" d="M54.42,46.31v0.937h-0.777V46.31h-0.136c-0.796,0-1.455-0.271-1.973-0.813
		c-0.521-0.543-0.781-1.211-0.781-2.004c0-0.758,0.26-1.396,0.779-1.913c0.516-0.518,1.179-0.776,1.986-0.776h0.124v-0.896h0.777
		v0.896h0.118c0.818,0,1.481,0.254,1.994,0.764c0.515,0.51,0.77,1.152,0.77,1.926c0,0.783-0.26,1.449-0.779,1.996
		c-0.521,0.548-1.176,0.821-1.975,0.821H54.42z M53.643,45.573v-4.068h-0.124c-0.564,0-1.023,0.187-1.369,0.558
		c-0.344,0.371-0.52,0.852-0.52,1.438c0,0.631,0.174,1.134,0.514,1.509c0.341,0.376,0.796,0.563,1.363,0.563H53.643z M54.42,41.505
		v4.068h0.128c0.569,0,1.022-0.189,1.366-0.565c0.341-0.377,0.511-0.879,0.511-1.507c0-0.597-0.17-1.079-0.511-1.446
		c-0.344-0.366-0.802-0.55-1.376-0.55H54.42z"/>
	<path fill="#FFFFFF" d="M61.511,47.365c-1.015,0-1.824-0.333-2.432-1c-0.611-0.668-0.916-1.536-0.916-2.605
		c0-1.148,0.311-2.064,0.934-2.748c0.618-0.684,1.463-1.026,2.533-1.026c0.985,0,1.78,0.332,2.382,0.997
		c0.604,0.663,0.905,1.531,0.905,2.604c0,1.166-0.31,2.086-0.928,2.764C63.373,47.027,62.546,47.365,61.511,47.365z M61.57,40.742
		c-0.752,0-1.359,0.271-1.826,0.813c-0.47,0.541-0.703,1.252-0.703,2.131s0.227,1.588,0.685,2.124
		c0.456,0.536,1.051,0.804,1.785,0.804c0.781,0,1.398-0.256,1.852-0.768c0.452-0.51,0.678-1.226,0.678-2.145
		c0-0.943-0.218-1.672-0.657-2.188C62.945,41,62.34,40.742,61.57,40.742z"/>
	<path fill="#FFFFFF" d="M67.157,44.547v2.699h-0.838v-7.141h1.962c0.765,0,1.356,0.186,1.776,0.558
		c0.42,0.371,0.63,0.896,0.63,1.573c0,0.678-0.232,1.232-0.699,1.664s-1.098,0.646-1.89,0.646H67.157z M67.157,40.862v2.928h0.877
		c0.577,0,1.017-0.132,1.322-0.396c0.303-0.265,0.456-0.637,0.456-1.119c0-0.942-0.559-1.413-1.672-1.413H67.157z"/>
	<path fill="#FFFFFF" d="M76.893,46.947c-0.526,0.279-1.187,0.418-1.971,0.418c-1.016,0-1.831-0.326-2.44-0.98
		c-0.614-0.654-0.918-1.513-0.918-2.574c0-1.143,0.347-2.065,1.032-2.77c0.688-0.703,1.559-1.055,2.614-1.055
		c0.678,0,1.238,0.098,1.683,0.294v0.891c-0.514-0.286-1.076-0.429-1.692-0.429c-0.821,0-1.485,0.273-1.994,0.822
		c-0.51,0.548-0.766,1.279-0.766,2.195c0,0.871,0.237,1.563,0.717,2.08c0.474,0.516,1.098,0.773,1.874,0.773
		c0.717,0,1.337-0.159,1.861-0.478V46.947z"/>
	<path fill="#FFFFFF" d="M83.874,47.246h-0.925l-0.758-2.002h-3.027l-0.712,2.002h-0.932l2.738-7.141h0.867L83.874,47.246z
		 M81.918,44.492l-1.12-3.042c-0.039-0.1-0.077-0.259-0.11-0.478h-0.021c-0.034,0.201-0.07,0.36-0.113,0.478l-1.111,3.042H81.918z"
		/>
	<path fill="#FFFFFF" d="M90.682,47.246h-0.838v-5.158c0-0.467,0.017-0.793,0.053-0.982h-0.032
		c-0.064,0.163-0.138,0.313-0.228,0.449l-3.676,5.691h-1.036v-7.141h0.837v5.03c0,0.537-0.016,0.889-0.038,1.051h0.019
		c0.071-0.146,0.164-0.306,0.279-0.479l3.584-5.602h1.076V47.246z M89.626,37.934c-0.051,0.468-0.239,0.838-0.564,1.108
		c-0.33,0.27-0.738,0.405-1.228,0.405c-0.506,0-0.916-0.135-1.232-0.405c-0.319-0.271-0.491-0.641-0.521-1.108h0.806
		c0.045,0.625,0.364,0.937,0.958,0.937c0.264,0,0.48-0.083,0.654-0.247c0.174-0.164,0.28-0.395,0.319-0.69H89.626z"/>
	<path fill="#FFFFFF" d="M96.787,40.862h-2.063v6.384h-0.836v-6.384H91.83v-0.757h4.957V40.862z"/>
</g>
<g>
	<path fill="#FFFFFF" d="M35.103,55.467h-0.407v-1.093h-2.232v1.093h-0.41v-1.5h0.267c0.512-0.738,0.771-1.603,0.779-2.593h1.559
		v2.593h0.445V55.467z M34.177,53.967v-2.186h-0.665c-0.053,0.809-0.28,1.537-0.683,2.186H34.177z"/>
	<path fill="#FFFFFF" d="M37.956,54.374h-0.478v-2.593h-0.697c-0.08,0.971-0.217,1.652-0.412,2.045s-0.456,0.589-0.784,0.589
		c-0.1,0-0.186-0.014-0.258-0.041v-0.413c0.068,0.035,0.143,0.053,0.223,0.053c0.43,0,0.706-0.88,0.829-2.64h1.576V54.374z"/>
	<path fill="#FFFFFF" d="M40.979,54.374h-0.48v-1.242h-0.401c-0.193,0-0.369,0.156-0.527,0.469l-0.39,0.773h-0.557l0.504-0.926
		c0.117-0.215,0.259-0.356,0.425-0.425c-0.234-0.031-0.413-0.117-0.536-0.258s-0.185-0.316-0.185-0.527
		c0-0.266,0.096-0.476,0.289-0.632c0.192-0.154,0.462-0.232,0.81-0.232h1.049V54.374z M40.499,52.73v-0.946h-0.568
		c-0.404,0-0.606,0.153-0.606,0.46c0,0.324,0.196,0.486,0.589,0.486H40.499z"/>
	<path fill="#FFFFFF" d="M46.08,54.374h-0.674l-1.324-1.441H44.07v1.441h-0.48v-3h0.48v1.374h0.012l1.26-1.374h0.63l-1.392,1.447
		L46.08,54.374z"/>
	<path fill="#FFFFFF" d="M47.826,54.444c-0.443,0-0.797-0.14-1.062-0.42s-0.397-0.652-0.397-1.115c0-0.504,0.138-0.897,0.413-1.181
		s0.647-0.425,1.116-0.425c0.447,0,0.797,0.138,1.048,0.413s0.375,0.657,0.375,1.146c0,0.479-0.134,0.862-0.405,1.15
		S48.281,54.444,47.826,54.444z M47.861,51.708c-0.308,0-0.552,0.105-0.732,0.314c-0.18,0.211-0.27,0.5-0.27,0.869
		c0,0.355,0.091,0.636,0.272,0.841s0.425,0.308,0.729,0.308c0.311,0,0.55-0.101,0.717-0.302s0.25-0.487,0.25-0.858
		c0-0.375-0.083-0.664-0.25-0.867S48.171,51.708,47.861,51.708z"/>
	<path fill="#FFFFFF" d="M53.328,54.374h-0.475v-2.473c-0.043,0.125-0.109,0.309-0.199,0.551l-0.751,1.922h-0.43L50.7,52.452
		c-0.041-0.104-0.107-0.287-0.199-0.551v2.473h-0.414v-3H50.7l0.791,1.957c0.057,0.143,0.129,0.34,0.217,0.592l0.213-0.58
		l0.769-1.969h0.639V54.374z"/>
	<path fill="#FFFFFF" d="M57.541,54.374h-0.475v-2.473c-0.043,0.125-0.109,0.309-0.199,0.551l-0.75,1.922h-0.432l-0.773-1.922
		c-0.041-0.104-0.107-0.287-0.199-0.551v2.473h-0.412v-3h0.611l0.791,1.957c0.057,0.143,0.129,0.34,0.217,0.592l0.215-0.58
		l0.768-1.969h0.639V54.374z"/>
	<path fill="#FFFFFF" d="M60.924,52.994h-2.117c0.008,0.334,0.098,0.592,0.27,0.773s0.408,0.272,0.709,0.272
		c0.338,0,0.648-0.111,0.932-0.334v0.451c-0.264,0.191-0.613,0.287-1.047,0.287c-0.424,0-0.756-0.137-0.998-0.408
		c-0.242-0.273-0.363-0.656-0.363-1.15c0-0.467,0.131-0.847,0.396-1.141c0.264-0.294,0.594-0.441,0.986-0.441
		s0.695,0.127,0.91,0.381s0.322,0.606,0.322,1.058V52.994z M60.432,52.587c-0.002-0.277-0.068-0.493-0.199-0.647
		c-0.133-0.154-0.316-0.231-0.551-0.231c-0.227,0-0.418,0.081-0.576,0.243s-0.256,0.374-0.293,0.636H60.432z"/>
	<path fill="#FFFFFF" d="M62.145,53.94h-0.012v1.813h-0.48v-4.38h0.48v0.527h0.012c0.236-0.398,0.582-0.598,1.037-0.598
		c0.387,0,0.688,0.135,0.904,0.402c0.217,0.27,0.326,0.629,0.326,1.08c0,0.502-0.123,0.904-0.367,1.205
		c-0.244,0.303-0.578,0.453-1.002,0.453C62.654,54.444,62.355,54.276,62.145,53.94z M62.133,52.73v0.419
		c0,0.248,0.08,0.459,0.242,0.631c0.16,0.174,0.365,0.26,0.613,0.26c0.291,0,0.518-0.111,0.684-0.334
		c0.164-0.223,0.248-0.532,0.248-0.929c0-0.334-0.078-0.596-0.232-0.785s-0.363-0.284-0.627-0.284c-0.279,0-0.504,0.098-0.674,0.291
		C62.217,52.194,62.133,52.438,62.133,52.73z"/>
	<path fill="#FFFFFF" d="M67.596,54.374h-0.477v-1.207c-0.352,0.191-0.676,0.287-0.973,0.287c-0.672,0-1.008-0.355-1.008-1.066
		v-1.014h0.48v0.99c0,0.439,0.189,0.659,0.568,0.659c0.289,0,0.6-0.084,0.932-0.252v-1.397h0.477V54.374z"/>
	<path fill="#FFFFFF" d="M70.979,52.994h-2.117c0.008,0.334,0.098,0.592,0.27,0.773s0.408,0.272,0.709,0.272
		c0.338,0,0.648-0.111,0.932-0.334v0.451c-0.264,0.191-0.613,0.287-1.047,0.287c-0.424,0-0.756-0.137-0.998-0.408
		c-0.242-0.273-0.363-0.656-0.363-1.15c0-0.467,0.131-0.847,0.396-1.141c0.264-0.294,0.594-0.441,0.986-0.441
		s0.695,0.127,0.91,0.381s0.322,0.606,0.322,1.058V52.994z M70.486,52.587c-0.002-0.277-0.068-0.493-0.199-0.647
		c-0.133-0.154-0.316-0.231-0.551-0.231c-0.227,0-0.418,0.081-0.576,0.243s-0.256,0.374-0.293,0.636H70.486z"/>
	<path fill="#FFFFFF" d="M73.752,54.236c-0.23,0.139-0.504,0.208-0.82,0.208c-0.428,0-0.773-0.139-1.035-0.418
		c-0.264-0.277-0.395-0.639-0.395-1.082c0-0.494,0.141-0.891,0.424-1.191c0.283-0.299,0.662-0.449,1.135-0.449
		c0.264,0,0.496,0.049,0.697,0.146v0.492c-0.223-0.156-0.461-0.234-0.715-0.234c-0.307,0-0.559,0.109-0.754,0.33
		c-0.197,0.219-0.295,0.508-0.295,0.865c0,0.352,0.092,0.629,0.277,0.832c0.184,0.203,0.432,0.305,0.742,0.305
		c0.262,0,0.508-0.087,0.738-0.261V54.236z"/>
	<path fill="#FFFFFF" d="M76.969,54.374h-0.674l-1.324-1.441h-0.012v1.441h-0.48v-3h0.48v1.374h0.012l1.26-1.374h0.629l-1.391,1.447
		L76.969,54.374z"/>
	<path fill="#FFFFFF" d="M78.715,54.444c-0.443,0-0.799-0.14-1.063-0.42c-0.266-0.28-0.396-0.652-0.396-1.115
		c0-0.504,0.137-0.897,0.412-1.181s0.648-0.425,1.117-0.425c0.447,0,0.795,0.138,1.047,0.413c0.25,0.275,0.377,0.657,0.377,1.146
		c0,0.479-0.137,0.862-0.406,1.15C79.531,54.301,79.17,54.444,78.715,54.444z M78.75,51.708c-0.309,0-0.553,0.105-0.732,0.314
		c-0.18,0.211-0.27,0.5-0.27,0.869c0,0.355,0.09,0.636,0.271,0.841s0.426,0.308,0.73,0.308c0.311,0,0.549-0.101,0.717-0.302
		c0.166-0.201,0.25-0.487,0.25-0.858c0-0.375-0.084-0.664-0.25-0.867C79.299,51.81,79.061,51.708,78.75,51.708z"/>
	<path fill="#FFFFFF" d="M82.643,51.784h-1.186v2.59h-0.48v-3h1.666V51.784z"/>
	<path fill="#FFFFFF" d="M84.527,54.444c-0.443,0-0.799-0.14-1.063-0.42c-0.266-0.28-0.396-0.652-0.396-1.115
		c0-0.504,0.137-0.897,0.412-1.181s0.648-0.425,1.117-0.425c0.447,0,0.795,0.138,1.047,0.413c0.25,0.275,0.377,0.657,0.377,1.146
		c0,0.479-0.137,0.862-0.406,1.15C85.344,54.301,84.982,54.444,84.527,54.444z M84.563,51.708c-0.309,0-0.553,0.105-0.732,0.314
		c-0.18,0.211-0.27,0.5-0.27,0.869c0,0.355,0.09,0.636,0.271,0.841s0.426,0.308,0.73,0.308c0.311,0,0.549-0.101,0.717-0.302
		c0.166-0.201,0.25-0.487,0.25-0.858c0-0.375-0.084-0.664-0.25-0.867C85.111,51.81,84.873,51.708,84.563,51.708z"/>
	<path fill="#FFFFFF" d="M34.531,60.236c-0.23,0.139-0.504,0.208-0.82,0.208c-0.428,0-0.773-0.139-1.036-0.418
		c-0.263-0.277-0.394-0.639-0.394-1.082c0-0.494,0.142-0.891,0.425-1.191c0.283-0.299,0.661-0.449,1.134-0.449
		c0.264,0,0.496,0.049,0.697,0.146v0.492c-0.223-0.156-0.461-0.234-0.715-0.234c-0.307,0-0.558,0.109-0.754,0.33
		c-0.196,0.219-0.294,0.508-0.294,0.865c0,0.352,0.092,0.629,0.277,0.832s0.432,0.305,0.743,0.305c0.262,0,0.508-0.087,0.738-0.261
		V60.236z"/>
	<path fill="#FFFFFF" d="M37.669,58.994h-2.118c0.008,0.334,0.098,0.592,0.27,0.773s0.408,0.272,0.709,0.272
		c0.338,0,0.648-0.111,0.932-0.334v0.451c-0.264,0.191-0.612,0.287-1.046,0.287c-0.424,0-0.757-0.137-0.999-0.408
		c-0.242-0.273-0.363-0.656-0.363-1.15c0-0.467,0.132-0.847,0.397-1.141s0.593-0.441,0.986-0.441s0.696,0.127,0.911,0.381
		s0.322,0.606,0.322,1.058V58.994z M37.177,58.587c-0.002-0.277-0.069-0.493-0.201-0.647s-0.315-0.231-0.549-0.231
		c-0.227,0-0.419,0.081-0.577,0.243s-0.256,0.374-0.293,0.636H37.177z"/>
	<path fill="#FFFFFF" d="M40.886,60.374h-0.674l-1.324-1.441h-0.012v1.441h-0.48v-3h0.48v1.374h0.012l1.26-1.374h0.63l-1.392,1.447
		L40.886,60.374z"/>
	<path fill="#FFFFFF" d="M43.262,57.784h-0.899v2.59h-0.48v-2.59h-0.902v-0.41h2.282V57.784z"/>
	<path fill="#FFFFFF" d="M45.093,60.444c-0.443,0-0.797-0.14-1.062-0.42s-0.397-0.652-0.397-1.115c0-0.504,0.138-0.897,0.413-1.181
		s0.647-0.425,1.116-0.425c0.447,0,0.796,0.138,1.047,0.413s0.376,0.657,0.376,1.146c0,0.479-0.135,0.862-0.406,1.15
		S45.548,60.444,45.093,60.444z M45.128,57.708c-0.309,0-0.553,0.105-0.732,0.314c-0.18,0.211-0.27,0.5-0.27,0.869
		c0,0.355,0.091,0.636,0.272,0.841s0.425,0.308,0.729,0.308c0.311,0,0.549-0.101,0.716-0.302s0.25-0.487,0.25-0.858
		c0-0.375-0.083-0.664-0.25-0.867S45.438,57.708,45.128,57.708z"/>
	<path fill="#FFFFFF" d="M47.847,59.94h-0.012v1.813h-0.481v-4.38h0.481v0.527h0.012c0.235-0.398,0.581-0.598,1.037-0.598
		c0.386,0,0.687,0.135,0.904,0.402c0.217,0.27,0.326,0.629,0.326,1.08c0,0.502-0.123,0.904-0.367,1.205
		c-0.244,0.303-0.578,0.453-1.001,0.453C48.357,60.444,48.058,60.276,47.847,59.94z M47.835,58.73v0.419
		c0,0.248,0.08,0.459,0.241,0.631c0.161,0.174,0.365,0.26,0.614,0.26c0.29,0,0.519-0.111,0.683-0.334
		c0.166-0.223,0.248-0.532,0.248-0.929c0-0.334-0.078-0.596-0.232-0.785s-0.363-0.284-0.626-0.284c-0.279,0-0.504,0.098-0.674,0.291
		C47.919,58.194,47.835,58.438,47.835,58.73z"/>
	<path fill="#FFFFFF" d="M53.029,60.374h-0.48v-0.469h-0.012c-0.208,0.359-0.517,0.539-0.923,0.539
		c-0.299,0-0.533-0.079-0.701-0.237c-0.17-0.158-0.254-0.368-0.254-0.63c0-0.561,0.33-0.887,0.99-0.979l0.899-0.126
		c0-0.51-0.206-0.765-0.618-0.765c-0.361,0-0.688,0.123-0.979,0.369v-0.492c0.295-0.188,0.635-0.281,1.02-0.281
		c0.706,0,1.058,0.373,1.058,1.119V60.374z M52.549,58.856l-0.724,0.1c-0.223,0.031-0.391,0.086-0.504,0.166
		c-0.113,0.078-0.17,0.219-0.17,0.42c0,0.146,0.053,0.267,0.156,0.359c0.105,0.093,0.244,0.139,0.418,0.139
		c0.238,0,0.436-0.084,0.59-0.25c0.156-0.168,0.233-0.379,0.233-0.635V58.856z"/>
</g>
</svg>
