<?xml version="1.0" encoding="utf-8"?>
<!-- Generator: Adobe Illustrator 23.0.3, SVG Export Plug-In . SVG Version: 6.00 Build 0)  -->
<svg version="1.1" id="Слой_1" xmlns="http://www.w3.org/2000/svg" xmlns:xlink="http://www.w3.org/1999/xlink" x="0px" y="0px"
	 viewBox="0 0 12.4 12" style="enable-background:new 0 0 12.4 12;" xml:space="preserve">
<path d="M9.7,11.9c-0.1,0-0.2,0-0.3-0.1L6.2,9.5l-3.3,2.4c-0.2,0.1-0.4,0.1-0.6,0c-0.2-0.1-0.2-0.4-0.2-0.6l1.2-3.8L0.2,5.1
	C0,5,0,4.8,0,4.6s0.3-0.3,0.5-0.3l0,0l4,0l1.2-3.8C5.8,0.2,6,0.1,6.2,0.1l0,0c0.2,0,0.4,0.1,0.5,0.3l1.2,3.8l4,0
	c0.2,0,0.4,0.1,0.5,0.3c0.1,0.2,0,0.4-0.2,0.6L9,7.5l1.2,3.8c0.1,0.2,0,0.4-0.2,0.6C9.9,11.9,9.8,11.9,9.7,11.9z M6.2,8.4
	c0.1,0,0.2,0,0.3,0.1l2.3,1.7L7.9,7.4C7.8,7.2,7.9,7,8.1,6.9l2.3-1.6l-2.8,0c-0.2,0-0.4-0.1-0.5-0.3L6.2,2.2L5.3,4.9
	C5.3,5.1,5.1,5.2,4.8,5.2l0,0L2,5.2l2.2,1.6c0,0,0.1,0.1,0.1,0.1c0.1,0.1,0.1,0.3,0.1,0.4l-0.9,2.7l2.3-1.7C6,8.4,6.1,8.4,6.2,8.4z"
	/>
</svg>
