<?xml version="1.0" encoding="utf-8"?>
<!-- Generator: Adobe Illustrator 22.1.0, SVG Export Plug-In . SVG Version: 6.00 Build 0)  -->
<svg version="1.1" id="Слой_1" xmlns="http://www.w3.org/2000/svg" xmlns:xlink="http://www.w3.org/1999/xlink" x="0px" y="0px"
	 viewBox="0 0 238.5 235.7" style="enable-background:new 0 0 238.5 235.7;" xml:space="preserve">
<style type="text/css">
	.st0{fill:#3880FF;}
	.st1{display:none;fill:url(#_x31__1_);}
	.st2{display:none;fill:url(#_x32__1_);}
	.st3{display:none;fill:url(#_x33__1_);}
</style>
<g>
	<path class="st0" d="M130.9,1.2c-1.8,0-3.6,0.1-5.3,0.4L43.6,15.4c-2.9,0.5-4.4,3.7-3,6.2l38,69.2c1,1.8,2.9,2.9,5,2.9l50.5,0
		c2.1,0,4-1.2,5-3l39.8-74.4c1.3-2.5-0.1-5.6-2.9-6.2l-39.7-8.5C134.5,1.4,132.7,1.2,130.9,1.2L130.9,1.2z"/>
	<path class="st0" d="M90.8,113.1c-1.6-2.8,0.5-6.3,3.7-6.3h28.9c3.2,0,5.3,3.4,3.7,6.3l-14.3,26.7c-1.6,3-5.9,3-7.5,0L90.8,113.1z"
		/>
	<path class="st0" d="M235.7,168.4c1.1-1.7,1.7-3.8,1.7-5.9V35.2c0-4.5-3.1-8.4-7.5-9.3l-0.1,0c-4.2-0.9-8.4,1.1-10.4,4.9L139.4,181
		c-1.7,3.2-5.1,5.3-8.8,5.3h-17.1c-3.7,0-7-2-8.8-5.2L22,25.9c-2-3.8-6.2-5.8-10.4-5.1l-1.7,0.3c-5.1,0.9-8.6,5-8.6,9.8v125.6
		c0,1.9,0.5,3.7,1.3,5.3v0c0.9,1.6,2.1,3.1,3.7,4.1l98.7,66.5c3.5,2.3,7.9,2.6,11.6,0.6l114.6-60.5
		C233.1,171.5,234.6,170.1,235.7,168.4z"/>
</g>
<linearGradient id="_x31__1_" gradientUnits="userSpaceOnUse" x1="149.2991" y1="-12.284" x2="249.6149" y2="161.4681">
	<stop  offset="0" style="stop-color:#303548"/>
	<stop  offset="3.876811e-02" style="stop-color:#2C3C59"/>
	<stop  offset="0.1535" style="stop-color:#214E85"/>
	<stop  offset="0.2736" style="stop-color:#185DAA"/>
	<stop  offset="0.3977" style="stop-color:#106AC9"/>
	<stop  offset="0.5271" style="stop-color:#0A74E1"/>
	<stop  offset="0.664" style="stop-color:#067BF2"/>
	<stop  offset="0.8137" style="stop-color:#047FFC"/>
	<stop  offset="1" style="stop-color:#0380FF"/>
</linearGradient>
<path id="_x31_" class="st1" d="M176.1,132.3l0-42.6c0-8.4-4.9-16-12.6-19.4l-34.2-15.2l-0.2-55.7l93.3,25.5
	c9.3,2.5,15.7,10.9,15.7,20.5l0,122.8L176.1,132.3z"/>
<linearGradient id="_x32__1_" gradientUnits="userSpaceOnUse" x1="-0.2716" y1="160.029" x2="101.6604" y2="-16.5225">
	<stop  offset="0" style="stop-color:#303548"/>
	<stop  offset="3.876811e-02" style="stop-color:#2C3C59"/>
	<stop  offset="0.1535" style="stop-color:#214E85"/>
	<stop  offset="0.2736" style="stop-color:#185DAA"/>
	<stop  offset="0.3977" style="stop-color:#106AC9"/>
	<stop  offset="0.5271" style="stop-color:#0A74E1"/>
	<stop  offset="0.664" style="stop-color:#067BF2"/>
	<stop  offset="0.8137" style="stop-color:#047FFC"/>
	<stop  offset="1" style="stop-color:#0380FF"/>
</linearGradient>
<path id="_x32_" class="st2" d="M2.2,161.4V42c0-10.2,7.2-18.9,17.1-20.9L129.2-0.7l0.2,55.7L89,66.7c-9.1,2.6-15.4,11-15.4,20.4
	v42.6L2.2,161.4z"/>
<linearGradient id="_x33__1_" gradientUnits="userSpaceOnUse" x1="238.1431" y1="180.651" x2="2.1723" y2="180.651">
	<stop  offset="0" style="stop-color:#303548"/>
	<stop  offset="3.876811e-02" style="stop-color:#2C3C59"/>
	<stop  offset="0.1535" style="stop-color:#214E85"/>
	<stop  offset="0.2736" style="stop-color:#185DAA"/>
	<stop  offset="0.3977" style="stop-color:#106AC9"/>
	<stop  offset="0.5271" style="stop-color:#0A74E1"/>
	<stop  offset="0.664" style="stop-color:#067BF2"/>
	<stop  offset="0.8137" style="stop-color:#047FFC"/>
	<stop  offset="1" style="stop-color:#0380FF"/>
</linearGradient>
<path id="_x33_" class="st3" d="M176.1,132.3l62,35.7l-115.4,61c-6.9,3.7-15.3,3.2-21.8-1.2L2.2,161.4l71.5-31.7l37,22.8
	c6.1,3.8,13.7,4.2,20.2,1.1L176.1,132.3z"/>
</svg>
