<?xml version="1.0" encoding="utf-8"?>
<!-- Generator: Adobe Illustrator 22.1.0, SVG Export Plug-In . SVG Version: 6.00 Build 0)  -->
<svg version="1.1" id="Слой_1" xmlns="http://www.w3.org/2000/svg" xmlns:xlink="http://www.w3.org/1999/xlink" x="0px" y="0px"
	 viewBox="0 0 274.5 268.4" style="enable-background:new 0 0 274.5 268.4;" xml:space="preserve">
<style type="text/css">
	.st0{display:none;}
	.st1{display:inline;fill:#3880FF;}
	.st2{display:inline;fill:url(#_x31__1_);}
	.st3{display:inline;fill:url(#_x32__1_);}
	.st4{display:inline;fill:url(#_x33__1_);}
	.st5{fill:none;stroke:#3880FF;stroke-width:7;stroke-linecap:round;stroke-miterlimit:10;}
</style>
<g class="st0">
	<path class="st1" d="M147.7,19c-1.8,0-3.6,0.1-5.3,0.4l-82,13.8c-2.9,0.5-4.4,3.7-3,6.2l38,69.2c1,1.8,2.9,2.9,5,2.9h50.5
		c2.1,0,4-1.2,5-3l39.8-74.4c1.3-2.5-0.1-5.6-2.9-6.2l-39.7-8.5C151.3,19.2,149.5,19,147.7,19L147.7,19z"/>
	<path class="st1" d="M107.6,130.9c-1.6-2.8,0.5-6.3,3.7-6.3h28.9c3.2,0,5.3,3.4,3.7,6.3l-14.3,26.7c-1.6,3-5.9,3-7.5,0L107.6,130.9
		z"/>
	<path class="st1" d="M252.5,186.2c1.1-1.7,1.7-3.8,1.7-5.9V53c0-4.5-3.1-8.4-7.5-9.3h-0.1c-4.2-0.9-8.4,1.1-10.4,4.9l-80,150.2
		c-1.7,3.2-5.1,5.3-8.8,5.3h-17.1c-3.7,0-7-2-8.8-5.2L38.8,43.7c-2-3.8-6.2-5.8-10.4-5.1l-1.7,0.3c-5.1,0.9-8.6,5-8.6,9.8v125.6
		c0,1.9,0.5,3.7,1.3,5.3l0,0c0.9,1.6,2.1,3.1,3.7,4.1l98.7,66.5c3.5,2.3,7.9,2.6,11.6,0.6L248,190.3
		C249.9,189.3,251.4,187.9,252.5,186.2z"/>
</g>
<g class="st0">
	
		<linearGradient id="_x31__1_" gradientUnits="userSpaceOnUse" x1="166.0901" y1="268.0008" x2="266.4326" y2="94.2024" gradientTransform="matrix(1 0 0 -1 0 273.514)">
		<stop  offset="0" style="stop-color:#303548"/>
		<stop  offset="3.876811e-02" style="stop-color:#2C3C59"/>
		<stop  offset="0.1535" style="stop-color:#214E85"/>
		<stop  offset="0.2736" style="stop-color:#185DAA"/>
		<stop  offset="0.3977" style="stop-color:#106AC9"/>
		<stop  offset="0.5271" style="stop-color:#0A74E1"/>
		<stop  offset="0.664" style="stop-color:#067BF2"/>
		<stop  offset="0.8137" style="stop-color:#047FFC"/>
		<stop  offset="1" style="stop-color:#0380FF"/>
	</linearGradient>
	<path id="_x31_" class="st2" d="M192.9,150.1v-42.6c0-8.4-4.9-16-12.6-19.4l-34.2-15.2l-0.2-55.7l93.3,25.5
		c9.3,2.5,15.7,10.9,15.7,20.5V186L192.9,150.1z"/>
	
		<linearGradient id="_x32__1_" gradientUnits="userSpaceOnUse" x1="16.5973" y1="95.7572" x2="118.5386" y2="272.3248" gradientTransform="matrix(1 0 0 -1 0 273.514)">
		<stop  offset="0" style="stop-color:#303548"/>
		<stop  offset="3.876811e-02" style="stop-color:#2C3C59"/>
		<stop  offset="0.1535" style="stop-color:#214E85"/>
		<stop  offset="0.2736" style="stop-color:#185DAA"/>
		<stop  offset="0.3977" style="stop-color:#106AC9"/>
		<stop  offset="0.5271" style="stop-color:#0A74E1"/>
		<stop  offset="0.664" style="stop-color:#067BF2"/>
		<stop  offset="0.8137" style="stop-color:#047FFC"/>
		<stop  offset="1" style="stop-color:#0380FF"/>
	</linearGradient>
	<path id="_x32_" class="st3" d="M19,179.2V59.8c0-10.2,7.2-18.9,17.1-20.9L146,17.1l0.2,55.7l-40.4,11.7
		c-9.1,2.6-15.4,11-15.4,20.4v42.6L19,179.2z"/>
	
		<linearGradient id="_x33__1_" gradientUnits="userSpaceOnUse" x1="254.9224" y1="75.1716" x2="19.0224" y2="75.1716" gradientTransform="matrix(1 0 0 -1 0 273.514)">
		<stop  offset="0" style="stop-color:#303548"/>
		<stop  offset="3.876811e-02" style="stop-color:#2C3C59"/>
		<stop  offset="0.1535" style="stop-color:#214E85"/>
		<stop  offset="0.2736" style="stop-color:#185DAA"/>
		<stop  offset="0.3977" style="stop-color:#106AC9"/>
		<stop  offset="0.5271" style="stop-color:#0A74E1"/>
		<stop  offset="0.664" style="stop-color:#067BF2"/>
		<stop  offset="0.8137" style="stop-color:#047FFC"/>
		<stop  offset="1" style="stop-color:#0380FF"/>
	</linearGradient>
	<path id="_x33_" class="st4" d="M192.9,150.1l62,35.7l-115.4,61c-6.9,3.7-15.3,3.2-21.8-1.2L19,179.2l71.5-31.7l37,22.8
		c6.1,3.8,13.7,4.2,20.2,1.1L192.9,150.1z"/>
</g>
<g>
	<path class="st5" d="M102.4,110.5h49.5c2.1,0,4-1.2,5-3l39.8-74.4c1.3-2.5-0.1-5.6-2.9-6.2l-39.7-8.5c-1.8-0.2-3.6-0.4-5.4-0.4l0,0
		c-1.8,0-3.6,0.1-5.3,0.4l-82,13.8c-2.9,0.5-4.4,3.7-3,6.2l36.7,66.8"/>
	<path class="st5" d="M114.7,123.6h26.5c3.2,0,5.3,3.4,3.7,6.3l-14.3,26.7c-1.6,3-5.9,3-7.5,0l-14.5-26.7"/>
	<path class="st5" d="M24.1,182.7l98.7,66.5c3.5,2.3,7.9,2.6,11.6,0.6L249,189.3c1.9-1,3.4-2.4,4.5-4.1c1.1-1.7,1.7-3.8,1.7-5.9V52
		c0-4.5-3.1-8.4-7.5-9.3h-0.1c-4.2-0.9-8.4,1.1-10.4,4.9l-80,150.2c-1.7,3.2-5.1,5.3-8.8,5.3h-17.1c-3.7,0-7-2-8.8-5.2L39.8,42.7
		c-2-3.8-6.2-5.8-10.4-5.1l-1.7,0.3c-5.1,0.9-8.6,5-8.6,9.8v128.2"/>
</g>
</svg>
